<svg width="300" height="300" viewBox="0 0 300 300" fill="none" xmlns="http://www.w3.org/2000/svg">
<g clip-path="url(#clip0_1102_168)">
<path d="M74.65 278.549C71.9177 278.549 69.2609 277.653 67.0862 275.998C64.9116 274.344 63.3388 272.023 62.6086 269.39C61.8784 266.757 62.031 263.957 63.0431 261.419C64.0551 258.881 65.8709 256.745 68.2125 255.337C112.5 228.737 112.5 171.612 112.5 137.487C112.5 127.541 116.451 118.003 123.483 110.97C130.516 103.938 140.054 99.987 150 99.987C159.946 99.987 169.484 103.938 176.517 110.97C183.549 118.003 187.5 127.541 187.5 137.487C187.5 140.802 186.183 143.982 183.839 146.326C181.495 148.67 178.315 149.987 175 149.987C171.685 149.987 168.505 148.67 166.161 146.326C163.817 143.982 162.5 140.802 162.5 137.487C162.5 134.172 161.183 130.992 158.839 128.648C156.495 126.304 153.315 124.987 150 124.987C146.685 124.987 143.505 126.304 141.161 128.648C138.817 130.992 137.5 134.172 137.5 137.487C137.5 174.324 137.5 242.912 81.075 276.774C79.1335 277.937 76.9129 278.55 74.65 278.549V278.549ZM136.688 296.312C165.213 267.562 181.875 227.137 186.2 176.049C186.346 174.411 186.167 172.759 185.673 171.19C185.179 169.62 184.38 168.164 183.322 166.904C182.264 165.644 180.968 164.605 179.508 163.847C178.047 163.089 176.452 162.627 174.812 162.487C173.172 162.319 171.515 162.482 169.939 162.968C168.363 163.454 166.902 164.252 165.641 165.314C164.38 166.377 163.346 167.683 162.6 169.153C161.854 170.624 161.412 172.229 161.3 173.874C157.413 219.587 143.562 253.874 118.95 278.637C116.613 280.989 115.306 284.173 115.316 287.489C115.327 290.805 116.654 293.981 119.006 296.318C121.358 298.655 124.543 299.963 127.859 299.952C131.174 299.941 134.35 298.614 136.688 296.262V296.312ZM201.688 293.987C209.27 281.389 215.584 268.069 220.537 254.225C221.573 251.128 221.356 247.749 219.933 244.811C218.509 241.873 215.993 239.608 212.922 238.501C209.85 237.393 206.467 237.532 203.497 238.887C200.526 240.241 198.203 242.704 197.025 245.749C192.624 258.025 187.022 269.837 180.3 281.012C179.448 282.416 178.881 283.975 178.631 285.598C178.382 287.222 178.454 288.878 178.845 290.474C179.235 292.069 179.936 293.572 180.908 294.897C181.879 296.221 183.102 297.341 184.506 298.193C187.342 299.914 190.746 300.437 193.968 299.648C195.563 299.258 197.066 298.557 198.391 297.585C199.715 296.614 200.836 295.391 201.688 293.987V293.987ZM231.25 214.874C235.881 189.348 237.975 163.426 237.5 137.487C237.488 119.778 232.103 102.49 222.057 87.9065C212.011 73.3231 197.776 62.1313 181.234 55.81C164.692 49.4887 146.621 48.3355 129.409 52.5027C112.198 56.6699 96.656 65.9615 84.8375 79.1495C83.6865 80.362 82.7904 81.7931 82.2023 83.3581C81.6142 84.9231 81.346 86.5902 81.4136 88.2606C81.4811 89.9311 81.8831 91.5711 82.5958 93.0834C83.3084 94.5958 84.3172 95.9498 85.5624 97.0654C86.8076 98.181 88.2639 99.0355 89.8452 99.5782C91.4265 100.121 93.1006 100.341 94.7685 100.225C96.4363 100.11 98.064 99.6605 99.5552 98.9046C101.046 98.1487 102.371 97.1013 103.45 95.8245C111.891 86.403 122.992 79.7645 135.286 76.7866C147.581 73.8086 160.489 74.6312 172.306 79.1458C184.122 83.6603 194.291 91.6543 201.468 102.071C208.644 112.488 212.491 124.837 212.5 137.487C212.961 161.822 211.027 186.143 206.725 210.099C206.094 213.351 206.779 216.721 208.631 219.468C210.482 222.215 213.349 224.115 216.6 224.75C217.394 224.908 218.202 224.988 219.012 224.987C221.908 224.979 224.711 223.967 226.943 222.123C229.175 220.278 230.697 217.717 231.25 214.874ZM87.5 137.487C87.4964 133.998 87.7849 130.515 88.3625 127.074C88.7357 125.418 88.7676 123.703 88.4562 122.034C88.1448 120.365 87.4965 118.777 86.5511 117.366C85.6056 115.956 84.3828 114.753 82.9571 113.831C81.5314 112.909 79.9328 112.287 78.2588 112.003C76.5847 111.719 74.8704 111.779 73.2204 112.179C71.5704 112.58 70.0192 113.312 68.6616 114.332C67.3039 115.351 66.1682 116.637 65.3238 118.11C64.4793 119.583 63.9439 121.213 63.75 122.899C62.9248 127.718 62.5067 132.598 62.5 137.487C62.5 195.549 45.675 224.987 12.5 224.987C9.18479 224.987 6.00537 226.304 3.66117 228.648C1.31696 230.992 0 234.172 0 237.487C0 240.802 1.31696 243.982 3.66117 246.326C6.00537 248.67 9.18479 249.987 12.5 249.987C60.8625 249.987 87.5 209.987 87.5 137.487ZM258.75 292.662C279.321 243.588 289.125 190.673 287.5 137.487C287.558 116.724 282.854 96.2233 273.75 77.562C273.032 76.0846 272.03 74.7631 270.801 73.6731C269.572 72.583 268.14 71.7456 266.588 71.2088C265.035 70.6719 263.392 70.4461 261.753 70.5443C260.113 70.6424 258.509 71.0626 257.031 71.7807C255.554 72.4989 254.232 73.501 253.142 74.7299C252.052 75.9587 251.215 77.3903 250.678 78.9428C250.141 80.4952 249.915 82.1383 250.014 83.778C250.112 85.4177 250.532 87.0221 251.25 88.4995C258.688 103.757 262.536 120.513 262.5 137.487C264.073 187.097 255.043 236.471 236.013 282.312C235.335 283.809 234.959 285.425 234.907 287.067C234.854 288.709 235.126 290.346 235.706 291.883C236.287 293.42 237.165 294.828 238.29 296.025C239.415 297.223 240.765 298.187 242.263 298.862C243.882 299.607 245.643 299.99 247.425 299.987C249.816 299.977 252.153 299.281 254.16 297.983C256.167 296.685 257.76 294.838 258.75 292.662V292.662ZM37.5 174.987V137.487C37.5331 107.66 49.3964 79.0647 70.487 57.974C91.5777 36.8833 120.173 25.0201 150 24.987C174.355 24.9058 198.065 32.8092 217.5 47.487C220.152 49.4761 223.486 50.3302 226.768 49.8613C230.05 49.3925 233.011 47.6391 235 44.987C236.989 42.3348 237.843 39.0011 237.374 35.7192C236.906 32.4373 235.152 29.4761 232.5 27.487C208.742 9.55474 179.766 -0.104107 150 -0.0130337C113.546 0.0299722 78.5973 14.5303 52.8203 40.3073C27.0434 66.0842 12.543 101.033 12.5 137.487V174.987C12.5 178.302 13.817 181.482 16.1612 183.826C18.5054 186.17 21.6848 187.487 25 187.487C28.3152 187.487 31.4946 186.17 33.8388 183.826C36.183 181.482 37.5 178.302 37.5 174.987Z" fill="white"/>
</g>
<defs>
<clipPath id="clip0_1102_168">
<rect width="300" height="300" fill="white"/>
</clipPath>
</defs>
</svg>
