<svg width="300" height="300" viewBox="0 0 300 300" fill="none" xmlns="http://www.w3.org/2000/svg">
<g clip-path="url(#clip0_1146_139)">
<path d="M286.873 119.997C284.529 117.654 281.35 116.337 278.036 116.337C274.721 116.337 271.542 117.654 269.198 119.997L133.048 256.734C127.245 262.539 120.355 267.143 112.771 270.285C105.188 273.427 97.0607 275.044 88.8526 275.045C72.2756 275.046 56.377 268.462 44.6545 256.741C32.9319 245.02 26.3456 229.122 26.3444 212.545C26.3432 195.968 32.9273 180.07 44.6482 168.347L176.511 35.9469C183.562 29.0081 193.069 25.1366 202.962 25.1757C212.854 25.2148 222.331 29.1614 229.327 36.1558C236.323 43.1501 240.272 52.6257 240.313 62.5183C240.355 72.4109 236.485 81.9192 229.548 88.9719L97.6857 221.372C95.3076 223.65 92.1415 224.922 88.8482 224.922C85.5549 224.922 82.3888 223.65 80.0107 221.372C77.6673 219.028 76.3509 215.849 76.3509 212.534C76.3509 209.22 77.6673 206.041 80.0107 203.697L197.411 85.7594C199.688 83.4019 200.948 80.2444 200.919 76.9669C200.891 73.6895 199.576 70.5543 197.258 68.2367C194.941 65.9191 191.806 64.6045 188.528 64.576C185.251 64.5475 182.093 65.8075 179.736 68.0844L62.3357 186.022C58.8528 189.504 56.09 193.638 54.2051 198.189C52.3201 202.739 51.35 207.616 51.35 212.541C51.35 217.466 52.3201 222.343 54.2051 226.893C56.09 231.443 58.8528 235.577 62.3357 239.059C69.481 245.878 78.978 249.682 88.8545 249.682C98.731 249.682 108.228 245.878 115.373 239.059L247.223 106.647C258.698 94.8757 265.074 79.0576 264.968 62.6191C264.863 46.1806 258.285 30.4454 246.66 18.8222C235.036 7.19904 219.3 0.623759 202.861 0.52076C186.423 0.41776 170.605 6.79533 158.836 18.2719L26.9732 150.672C10.5629 167.082 1.34375 189.339 1.34375 212.547C1.34375 235.755 10.5629 258.012 26.9732 274.422C43.3835 290.832 65.6406 300.051 88.8482 300.051C112.056 300.051 134.313 290.832 150.723 274.422L286.873 137.722C288.041 136.56 288.968 135.179 289.6 133.658C290.233 132.138 290.558 130.507 290.558 128.859C290.558 127.212 290.233 125.581 289.6 124.06C288.968 122.539 288.041 121.159 286.873 119.997V119.997Z" fill="white"/>
</g>
<defs>
<clipPath id="clip0_1146_139">
<rect width="300" height="300" fill="white"/>
</clipPath>
</defs>
</svg>
