<svg width="300" height="300" viewBox="0 0 300 300" fill="none" xmlns="http://www.w3.org/2000/svg">
<g clip-path="url(#clip0_1102_96)">
<path d="M299.999 140.59C298.191 111.34 287.863 83.2586 270.288 59.8075C252.714 36.3564 228.661 18.5608 201.095 8.6146C173.529 -1.33162 143.655 -2.99367 115.156 3.83336C86.6563 10.6604 60.7778 25.678 40.7104 47.0349C20.643 68.3918 7.26399 95.1542 2.22276 124.023C-2.81848 152.892 0.698439 182.604 12.3399 209.499C23.9814 236.393 43.2386 259.292 67.7373 275.374C92.2361 291.456 120.905 300.017 150.211 300.002H237.499C254.069 299.986 269.957 293.396 281.674 281.678C293.392 269.961 299.982 254.073 299.999 237.502V140.59ZM274.999 237.502C274.999 247.448 271.048 256.986 264.015 264.019C256.982 271.051 247.444 275.002 237.499 275.002H150.211C132.573 274.994 115.134 271.269 99.0322 264.069C82.9304 256.868 68.5269 246.355 56.761 233.215C44.9382 220.081 36.0601 204.571 30.7222 187.725C25.3842 170.878 23.7097 153.086 25.811 135.54C29.1289 107.864 41.5633 82.0795 61.154 62.2512C80.7447 42.4229 106.377 29.6785 134.011 26.0272C139.401 25.3515 144.828 25.0092 150.261 25.0022C179.392 24.9227 207.621 35.1009 229.999 53.7522C243.068 64.614 253.795 78.0166 261.53 93.1475C269.265 108.279 273.847 124.823 274.999 141.777V237.502Z" fill="white"/>
<path d="M100 112.498H150C153.315 112.498 156.495 111.181 158.839 108.837C161.183 106.493 162.5 103.313 162.5 99.998C162.5 96.6828 161.183 93.5034 158.839 91.1592C156.495 88.815 153.315 87.498 150 87.498H100C96.6848 87.498 93.5054 88.815 91.1612 91.1592C88.817 93.5034 87.5 96.6828 87.5 99.998C87.5 103.313 88.817 106.493 91.1612 108.837C93.5054 111.181 96.6848 112.498 100 112.498Z" fill="white"/>
<path d="M200 137.502H100C96.6848 137.502 93.5054 138.819 91.1612 141.163C88.817 143.507 87.5 146.687 87.5 150.002C87.5 153.317 88.817 156.497 91.1612 158.841C93.5054 161.185 96.6848 162.502 100 162.502H200C203.315 162.502 206.495 161.185 208.839 158.841C211.183 156.497 212.5 153.317 212.5 150.002C212.5 146.687 211.183 143.507 208.839 141.163C206.495 138.819 203.315 137.502 200 137.502Z" fill="white"/>
<path d="M200 187.5H100C96.6848 187.5 93.5054 188.817 91.1612 191.161C88.817 193.505 87.5 196.685 87.5 200C87.5 203.315 88.817 206.495 91.1612 208.839C93.5054 211.183 96.6848 212.5 100 212.5H200C203.315 212.5 206.495 211.183 208.839 208.839C211.183 206.495 212.5 203.315 212.5 200C212.5 196.685 211.183 193.505 208.839 191.161C206.495 188.817 203.315 187.5 200 187.5Z" fill="white"/>
</g>
<defs>
<clipPath id="clip0_1102_96">
<rect width="300" height="300" fill="white"/>
</clipPath>
</defs>
</svg>
