<!--?xml version="1.0" encoding="utf-8"?-->
<!-- Svg Vector Icons : http://www.onlinewebfonts.com/icon -->

<svg version="1.1" xmlns="http://www.w3.org/2000/svg" xmlns:xlink="http://www.w3.org/1999/xlink" x="0px" y="0px" viewBox="0 0 256 256" enable-background="new 0 0 256 256" xml:space="preserve">
<metadata> Svg Vector Icons : http://www.onlinewebfonts.com/icon </metadata>
<g><g><g><path fill="#ffffff" data-title="Layer 0" xs="0" d="M25.1,21.1c-4.6,1.1-10.2,5.4-12.5,9.6C9.9,35.8,10,32.2,10,105c0,58.4,0.1,67,0.7,69.4c1.9,7,6.6,12.1,13.3,14.2c2.5,0.8,5.1,0.8,36.7,0.8h34l-0.3,1.5c-0.1,0.8-1.4,9.1-2.9,18.4c-2.3,14.9-2.5,17.1-2,19c1.4,5.6,7.5,8.5,12.7,6c1.3-0.6,9.3-8.3,23.8-22.9l21.9-22h40.7c39.7,0,40.7,0,43.5-0.9c6.8-2.3,11.3-7.2,13.1-14.1c0.6-2.4,0.7-11,0.7-69.4c0-72.8,0.1-69.3-2.6-74.4c-1.7-3.1-5.6-6.6-9.3-8.4l-3.1-1.5l-102-0.1C70.6,20.7,26.2,20.9,25.1,21.1z M231.7,31.3c1.9,1.2,2.8,2.1,3.8,4l1.3,2.5V105v67.2l-1.3,2.4c-1.6,3-4.2,4.9-7.5,5.6c-1.6,0.3-17.7,0.5-43.3,0.5H144l-22.7,22.7c-12.4,12.4-22.7,22.6-22.8,22.5c-0.1-0.1,6.1-42.1,6.6-44.1l0.2-1H67.9c-23.4,0-38.4-0.2-39.9-0.5c-3.3-0.6-5.9-2.5-7.5-5.6l-1.3-2.4V105V37.8l1.3-2.5c1-1.9,1.9-2.8,3.8-4l2.5-1.5H128h101.2L231.7,31.3z"/><path fill="#ffffff" data-title="Layer 1" xs="1" d="M90.3,95.3c-2.4,0.8-4,2.1-5.1,3.9c-2.2,3.7-1.8,8.1,1.1,11.3c2,2.3,3.9,3.1,7,3.1c5.5,0,9.4-3.8,9.4-9.3c0-4.4-2.7-8.1-6.9-9.2C93.5,94.5,92.6,94.5,90.3,95.3z"/><path fill="#ffffff" data-title="Layer 2" xs="2" d="M125.1,95.3c-3.7,1.3-5.4,3.2-6.4,6.9c-1.4,5.1,2.6,10.8,7.9,11.3c3.6,0.3,5.4-0.2,7.7-2.3c2.4-2.2,3.6-5.5,3.1-8.2c-0.4-2-1.7-4.6-2.8-5.6C132.1,95.1,128,94.2,125.1,95.3z"/><path fill="#ffffff" data-title="Layer 3" xs="3" d="M159.9,95.1c-9.9,3-8.4,17.6,1.9,18.4c3.6,0.3,5.6-0.5,7.8-2.9c2.9-3.1,3.4-7.3,1.4-11.2C169.1,95.9,164,93.9,159.9,95.1z"/></g></g></g>
</svg>