<svg width="300" height="300" viewBox="0 0 300 300" fill="none" xmlns="http://www.w3.org/2000/svg">
<g clip-path="url(#clip0_1102_37)">
<path d="M150 75C140.054 75 130.516 78.9509 123.483 85.9835C116.451 93.0161 112.5 102.554 112.5 112.5V262.5C112.5 272.446 116.451 281.984 123.483 289.017C130.516 296.049 140.054 300 150 300C159.946 300 169.484 296.049 176.517 289.017C183.549 281.984 187.5 272.446 187.5 262.5V112.5C187.5 102.554 183.549 93.0161 176.517 85.9835C169.484 78.9509 159.946 75 150 75ZM162.5 262.5C162.5 265.815 161.183 268.995 158.839 271.339C156.495 273.683 153.315 275 150 275C146.685 275 143.505 273.683 141.161 271.339C138.817 268.995 137.5 265.815 137.5 262.5V112.5C137.5 109.185 138.817 106.005 141.161 103.661C143.505 101.317 146.685 100 150 100C153.315 100 156.495 101.317 158.839 103.661C161.183 106.005 162.5 109.185 162.5 112.5V262.5Z" fill="white"/>
<path d="M262.5 0C252.554 0 243.016 3.95088 235.983 10.9835C228.951 18.0161 225 27.5544 225 37.5V262.5C225 272.446 228.951 281.984 235.983 289.017C243.016 296.049 252.554 300 262.5 300C272.446 300 281.984 296.049 289.017 289.017C296.049 281.984 300 272.446 300 262.5V37.5C300 27.5544 296.049 18.0161 289.017 10.9835C281.984 3.95088 272.446 0 262.5 0V0ZM275 262.5C275 265.815 273.683 268.995 271.339 271.339C268.995 273.683 265.815 275 262.5 275C259.185 275 256.005 273.683 253.661 271.339C251.317 268.995 250 265.815 250 262.5V37.5C250 34.1848 251.317 31.0054 253.661 28.6612C256.005 26.317 259.185 25 262.5 25C265.815 25 268.995 26.317 271.339 28.6612C273.683 31.0054 275 34.1848 275 37.5V262.5Z" fill="white"/>
<path d="M37.5 150C27.5544 150 18.0161 153.951 10.9835 160.983C3.95088 168.016 0 177.554 0 187.5L0 262.5C0 272.446 3.95088 281.984 10.9835 289.017C18.0161 296.049 27.5544 300 37.5 300C47.4456 300 56.9839 296.049 64.0165 289.017C71.0491 281.984 75 272.446 75 262.5V187.5C75 177.554 71.0491 168.016 64.0165 160.983C56.9839 153.951 47.4456 150 37.5 150Z" fill="white"/>
</g>
<defs>
<clipPath id="clip0_1102_37">
<rect width="300" height="300" fill="white"/>
</clipPath>
</defs>
</svg>
