<!--?xml version="1.0" encoding="utf-8"?-->
<!-- Svg Vector Icons : http://www.onlinewebfonts.com/icon -->

<svg version="1.1" xmlns="http://www.w3.org/2000/svg" xmlns:xlink="http://www.w3.org/1999/xlink" x="0px" y="0px" viewBox="0 0 256 256" enable-background="new 0 0 256 256" xml:space="preserve">
<metadata> Svg Vector Icons : http://www.onlinewebfonts.com/icon </metadata>
<g><g><g><path fill="#ffffff" data-title="Layer 0" xs="0" d="M180.8,24.6c-0.9,0.5-2.1,1.5-2.6,2.4l-1.1,1.6V128v99.4l1.1,1.6c2.2,3.3,0.8,3.2,34,3.1c29.2-0.1,29.7-0.1,31-1.1c0.7-0.5,1.7-1.7,2.1-2.5c0.8-1.5,0.8-7.2,0.8-100.4c0-93.2,0-98.9-0.8-100.4c-0.4-0.9-1.4-2-2.1-2.5c-1.3-1-1.8-1-31-1.1C184.5,23.9,182.3,23.9,180.8,24.6z M232.6,128v90.7h-21.1h-21.1V128V37.3h21.1h21.1V128z"/><path fill="#ffffff" data-title="Layer 1" xs="1" d="M98.1,79.9c-2.1,0.6-4.2,3.2-4.6,5.6c-0.1,1.1-0.2,33.4-0.1,71.9c0.1,67.8,0.2,69.9,1,71.4c0.5,0.8,1.7,1.9,2.6,2.4c1.7,1,2.2,1,31,1c28.8,0,29.3,0,31-1c0.9-0.5,2.1-1.6,2.6-2.4c0.8-1.4,0.9-3.4,0.9-73.1c0-71.5,0-71.6-1-72.8c-0.5-0.7-1.5-1.7-2.2-2.2c-1.3-1-1.8-1-30.5-1.1C111.9,79.5,98.9,79.6,98.1,79.9z M149.3,155.7v62.9H128h-21.3v-62.9V92.8H128h21.3V155.7z"/><path fill="#ffffff" data-title="Layer 2" xs="2" d="M12.8,136.6c-3,2.5-2.8-0.4-2.8,47c0,40.2,0,43.3,0.8,44.7c0.4,0.9,1.4,2,2.1,2.5c1.3,1,1.8,1,31,1.1c33.2,0.1,31.7,0.2,34-3.1l1.1-1.6v-43.5c0-48.2,0.2-45.6-3-47.6c-1.5-0.9-2.2-0.9-31.6-0.9H14.3L12.8,136.6z M65.5,183.7v34.9H44.5H23.4v-34.9v-34.9h21.1h21.1V183.7z"/></g></g></g>
</svg>