<svg width="300" height="300" viewBox="0 0 300 300" fill="none" xmlns="http://www.w3.org/2000/svg">
<g clip-path="url(#clip0_1128_166)">
<path d="M187.497 299.998C166.491 299.982 145.721 295.562 126.529 287.023C107.337 278.484 90.1478 266.015 76.072 250.423C61.8899 234.812 51.1897 216.363 44.6814 196.302C38.173 176.24 36.0053 155.024 38.322 134.06C42.0571 101.435 56.2895 70.9068 78.8766 47.0708C101.464 23.2348 131.183 7.38149 163.56 1.89767C184.49 -1.33515 205.849 -0.46481 226.447 4.46017C231.841 5.84591 236.766 8.64772 240.713 12.5757C244.661 16.5036 247.487 21.4151 248.899 26.8017C250.311 32.1884 250.259 37.8546 248.746 43.214C247.234 48.5734 244.317 53.4314 240.297 57.2852C183.297 109.36 188.247 190.335 250.385 237.41C254.778 240.858 258.167 245.421 260.199 250.624C262.231 255.826 262.832 261.478 261.938 266.991C261.045 272.504 258.69 277.677 255.119 281.972C251.549 286.267 246.892 289.526 241.635 291.41C224.157 297.12 205.884 300.019 187.497 299.998V299.998ZM188.447 24.9977C181.429 24.9808 174.42 25.5116 167.485 26.5852C140.529 31.1441 115.783 44.3357 96.9722 64.1743C78.1616 84.0129 66.3041 109.425 63.1845 136.585C61.2346 154.086 63.0316 171.801 68.4563 188.553C73.881 205.306 82.809 220.712 94.647 233.748C111.976 252.244 134.301 265.313 158.912 271.37C183.523 277.428 209.363 276.213 233.297 267.873C234.329 267.486 235.24 266.834 235.938 265.982C236.637 265.13 237.097 264.108 237.274 263.021C237.45 261.933 237.336 260.818 236.943 259.789C236.55 258.76 235.891 257.853 235.035 257.16C160.922 201.185 155.035 101.085 223.185 39.0477C223.967 38.3216 224.531 37.3918 224.813 36.3628C225.096 35.3338 225.086 34.2463 224.785 33.2227C224.525 32.1362 223.973 31.1415 223.189 30.3461C222.404 29.5508 221.417 28.985 220.335 28.7102C209.894 26.1917 199.187 24.9452 188.447 24.9977V24.9977Z" fill="white"/>
</g>
<defs>
<clipPath id="clip0_1128_166">
<rect width="300" height="300" fill="white"/>
</clipPath>
</defs>
</svg>
