<svg width="300" height="300" viewBox="0 0 300 300" fill="none" xmlns="http://www.w3.org/2000/svg">
<g clip-path="url(#clip0_1131_124)">
<path d="M242.088 184.088C251.526 180.389 259.674 174.005 265.524 165.725C271.373 157.445 274.668 147.632 275 137.5C275 104.725 243.75 83.075 190 76.8875C196.475 69.4292 200.028 59.8769 200 50C200 19.625 170.562 0 125 0C79.4375 0 50 19.625 50 50C50.0913 57.9212 52.354 65.6656 56.5416 72.3901C60.7293 79.1145 66.6814 84.5613 73.75 88.1375C45.3 100.65 37.5 120.075 37.5 137.5C37.4358 146.886 40.0149 156.101 44.9422 164.09C49.8696 172.079 56.9462 178.519 65.3625 182.675C22.4125 192.25 0 210.713 0 237.5C0 278.387 51.8625 300 150 300C249.537 300 300 278.975 300 237.5C300 211.788 280.563 193.95 242.088 184.088ZM125 25C149.888 25 175 32.7375 175 50C175 67.2625 149.888 75 125 75C100.112 75 75 67.2625 75 50C75 32.7375 100.112 25 125 25ZM156.25 100C199.5 100 250 109.825 250 137.5C250 165.175 199.5 175 156.25 175C128.062 175 62.5 171.35 62.5 137.5C62.5 103.65 128.062 100 156.25 100ZM150 275C74.0625 275 25 260.275 25 237.5C25 214.725 74.0625 200 150 200C228.275 200 275 214.025 275 237.5C275 260.975 228.275 275 150 275Z" fill="white"/>
</g>
<defs>
<clipPath id="clip0_1131_124">
<rect width="300" height="300" fill="white"/>
</clipPath>
</defs>
</svg>
