<svg width="300" height="300" viewBox="0 0 300 300" fill="none" xmlns="http://www.w3.org/2000/svg">
<g clip-path="url(#clip0_1136_143)">
<path d="M237.5 25H225V12.5C225 9.18479 223.683 6.00537 221.339 3.66117C218.995 1.31696 215.815 0 212.5 0C209.185 0 206.005 1.31696 203.661 3.66117C201.317 6.00537 200 9.18479 200 12.5V25H100V12.5C100 9.18479 98.683 6.00537 96.3388 3.66117C93.9946 1.31696 90.8152 0 87.5 0C84.1848 0 81.0054 1.31696 78.6612 3.66117C76.317 6.00537 75 9.18479 75 12.5V25H62.5C45.9301 25.0198 30.0445 31.611 18.3277 43.3277C6.61102 55.0445 0.0198482 70.9301 0 87.5L0 237.5C0.0198482 254.07 6.61102 269.956 18.3277 281.672C30.0445 293.389 45.9301 299.98 62.5 300H237.5C254.07 299.98 269.956 293.389 281.672 281.672C293.389 269.956 299.98 254.07 300 237.5V87.5C299.98 70.9301 293.389 55.0445 281.672 43.3277C269.956 31.611 254.07 25.0198 237.5 25V25ZM25 87.5C25 77.5544 28.9509 68.0161 35.9835 60.9835C43.0161 53.9509 52.5544 50 62.5 50H237.5C247.446 50 256.984 53.9509 264.017 60.9835C271.049 68.0161 275 77.5544 275 87.5V100H25V87.5ZM237.5 275H62.5C52.5544 275 43.0161 271.049 35.9835 264.017C28.9509 256.984 25 247.446 25 237.5V125H275V237.5C275 247.446 271.049 256.984 264.017 264.017C256.984 271.049 247.446 275 237.5 275Z" fill="white"/>
<path d="M150 206.25C160.355 206.25 168.75 197.855 168.75 187.5C168.75 177.145 160.355 168.75 150 168.75C139.645 168.75 131.25 177.145 131.25 187.5C131.25 197.855 139.645 206.25 150 206.25Z" fill="white"/>
<path d="M87.5 206.25C97.8553 206.25 106.25 197.855 106.25 187.5C106.25 177.145 97.8553 168.75 87.5 168.75C77.1447 168.75 68.75 177.145 68.75 187.5C68.75 197.855 77.1447 206.25 87.5 206.25Z" fill="white"/>
<path d="M212.5 206.25C222.855 206.25 231.25 197.855 231.25 187.5C231.25 177.145 222.855 168.75 212.5 168.75C202.145 168.75 193.75 177.145 193.75 187.5C193.75 197.855 202.145 206.25 212.5 206.25Z" fill="white"/>
</g>
<defs>
<clipPath id="clip0_1136_143">
<rect width="300" height="300" fill="white"/>
</clipPath>
</defs>
</svg>
