<svg width="300" height="300" viewBox="0 0 300 300" fill="none" xmlns="http://www.w3.org/2000/svg">
<g clip-path="url(#clip0_1112_129)">
<path d="M237.5 50H231.15L203.85 14.6C200.332 10.0726 195.829 6.40521 190.683 3.87568C185.538 1.34614 179.884 0.020788 174.15 0L125.85 0C120.116 0.020788 114.462 1.34614 109.317 3.87568C104.171 6.40521 99.6684 10.0726 96.15 14.6L68.85 50H62.5C45.9301 50.0198 30.0445 56.611 18.3277 68.3277C6.61102 80.0445 0.0198482 95.9301 0 112.5L0 237.5C0.0198482 254.07 6.61102 269.956 18.3277 281.672C30.0445 293.389 45.9301 299.98 62.5 300H237.5C254.07 299.98 269.956 293.389 281.672 281.672C293.389 269.956 299.98 254.07 300 237.5V112.5C299.98 95.9301 293.389 80.0445 281.672 68.3277C269.956 56.611 254.07 50.0198 237.5 50V50ZM115.95 29.875C117.121 28.3632 118.621 27.1383 120.337 26.2935C122.052 25.4488 123.938 25.0064 125.85 25H174.15C176.062 25.0082 177.947 25.4514 179.662 26.2961C181.377 27.1407 182.878 28.3646 184.05 29.875L199.575 50H100.425L115.95 29.875ZM275 237.5C275 247.446 271.049 256.984 264.017 264.017C256.984 271.049 247.446 275 237.5 275H62.5C52.5544 275 43.0161 271.049 35.9835 264.017C28.9509 256.984 25 247.446 25 237.5V112.5C25 102.554 28.9509 93.0161 35.9835 85.9835C43.0161 78.9509 52.5544 75 62.5 75H237.5C247.446 75 256.984 78.9509 264.017 85.9835C271.049 93.0161 275 102.554 275 112.5V237.5Z" fill="white"/>
<path d="M150 99.999C135.166 99.999 120.666 104.398 108.332 112.639C95.9986 120.88 86.3856 132.593 80.7091 146.298C75.0325 160.002 73.5472 175.082 76.4411 189.631C79.335 204.179 86.4781 217.543 96.967 228.032C107.456 238.521 120.82 245.664 135.368 248.558C149.917 251.452 164.997 249.967 178.701 244.29C192.406 238.613 204.119 229 212.36 216.667C220.601 204.333 225 189.833 225 174.999C224.98 155.114 217.072 136.049 203.011 121.988C188.95 107.927 169.885 100.019 150 99.999V99.999ZM150 224.999C140.111 224.999 130.444 222.067 122.222 216.573C113.999 211.078 107.59 203.27 103.806 194.133C100.022 184.997 99.0315 174.944 100.961 165.245C102.89 155.545 107.652 146.636 114.645 139.644C121.637 132.651 130.546 127.889 140.246 125.96C149.945 124.03 159.998 125.021 169.134 128.805C178.271 132.589 186.079 138.998 191.574 147.221C197.068 155.443 200 165.11 200 174.999C200 188.26 194.732 200.978 185.355 210.354C175.979 219.731 163.261 224.999 150 224.999Z" fill="white"/>
</g>
<defs>
<clipPath id="clip0_1112_129">
<rect width="300" height="300" fill="white"/>
</clipPath>
</defs>
</svg>
