<svg width="300" height="300" viewBox="0 0 300 300" fill="none" xmlns="http://www.w3.org/2000/svg">
<g clip-path="url(#clip0_1102_87)">
<path d="M283.912 50.9625C280.396 46.743 275.995 43.3494 271.019 41.0227C266.044 38.696 260.617 37.4933 255.125 37.5H53.025L52.5 33.1125C51.4256 23.9927 47.0423 15.5842 40.1811 9.48097C33.3199 3.37779 24.4578 0.00427242 15.275 0L12.5 0C9.18479 0 6.00537 1.31696 3.66117 3.66117C1.31696 6.00537 0 9.18479 0 12.5C0 15.8152 1.31696 18.9946 3.66117 21.3388C6.00537 23.683 9.18479 25 12.5 25H15.275C18.3367 25.0004 21.2917 26.1245 23.5797 28.1589C25.8676 30.1934 27.3293 32.9969 27.6875 36.0375L44.8875 182.288C46.6732 197.497 53.981 211.522 65.4239 221.7C76.8667 231.878 91.6482 237.5 106.963 237.5H237.5C240.815 237.5 243.995 236.183 246.339 233.839C248.683 231.495 250 228.315 250 225C250 221.685 248.683 218.505 246.339 216.161C243.995 213.817 240.815 212.5 237.5 212.5H106.963C99.2257 212.478 91.685 210.064 85.3742 205.588C79.0634 201.113 74.2914 194.794 71.7125 187.5H220.712C235.366 187.501 249.554 182.353 260.798 172.955C272.041 163.558 279.625 150.509 282.225 136.088L292.038 81.6625C293.017 76.2626 292.797 70.7133 291.393 65.408C289.989 60.1026 287.435 55.171 283.912 50.9625V50.9625ZM267.5 77.225L257.675 131.65C256.114 140.312 251.556 148.15 244.798 153.79C238.041 159.43 229.514 162.513 220.712 162.5H67.7375L55.975 62.5H255.125C256.961 62.489 258.777 62.8828 260.444 63.6532C262.111 64.4236 263.588 65.5518 264.769 66.9576C265.95 68.3634 266.808 70.0121 267.28 71.7867C267.752 73.5613 267.827 75.4181 267.5 77.225V77.225Z" fill="white"/>
<path d="M87.5 300.008C101.307 300.008 112.5 288.815 112.5 275.008C112.5 261.201 101.307 250.008 87.5 250.008C73.6929 250.008 62.5 261.201 62.5 275.008C62.5 288.815 73.6929 300.008 87.5 300.008Z" fill="white"/>
<path d="M212.5 300.008C226.307 300.008 237.5 288.815 237.5 275.008C237.5 261.201 226.307 250.008 212.5 250.008C198.693 250.008 187.5 261.201 187.5 275.008C187.5 288.815 198.693 300.008 212.5 300.008Z" fill="white"/>
</g>
<defs>
<clipPath id="clip0_1102_87">
<rect width="300" height="300" fill="white"/>
</clipPath>
</defs>
</svg>
