<!--?xml version="1.0" encoding="utf-8"?-->
<!-- Svg Vector Icons : http://www.onlinewebfonts.com/icon -->

<svg version="1.1" xmlns="http://www.w3.org/2000/svg" xmlns:xlink="http://www.w3.org/1999/xlink" x="0px" y="0px" viewBox="0 0 256 256" enable-background="new 0 0 256 256" xml:space="preserve">
<metadata> Svg Vector Icons : http://www.onlinewebfonts.com/icon </metadata>
<g><g><path fill="#ffffff" data-title="Layer 0" xs="0" d="M220.8,169.6L246,65.7H64.6c0,0,0-2.3-0.1-2.3c0,0,0,0.7,0,0.7v0.2l-16.8-35c0,0,0,0-0.1,0c-0.2,0-0.4,0.9-0.6,0.9c0,0,0,0-0.1,0c-0.4-0.6-0.9-1.7-1.5-1.7C44.8,28.6,44,28,43,28H14.7c-2.6,0-4.7,2.1-4.7,4.7s2.1,4.7,4.7,4.7h25.6L56,68c0.6,1.2,1.6,2.7,2.7,3.2l23.7,98.4H220.8z M231.8,75.2h1.1l-19.5,85H89.8l-20.3-85H231.8z"/><path fill="#ffffff" data-title="Layer 1" xs="1" d="M198.8,180.8c-13,0-23.6,10.6-23.6,23.6c0,13,10.6,23.6,23.6,23.6c13,0,23.6-10.6,23.6-23.6C222.4,191.4,211.8,180.8,198.8,180.8z M198.8,213.9c-5.2,0-9.4-4.2-9.4-9.4c0-5.2,4.2-9.4,9.4-9.4c5.2,0,9.4,4.2,9.4,9.4C208.2,209.6,204,213.9,198.8,213.9z"/><path fill="#ffffff" data-title="Layer 2" xs="2" d="M104.4,180.8c-13,0-23.6,10.6-23.6,23.6c0,13,10.6,23.6,23.6,23.6c13,0,23.6-10.6,23.6-23.6C128,191.4,117.4,180.8,104.4,180.8z M104.4,213.9c-5.2,0-9.4-4.2-9.4-9.4c0-5.2,4.2-9.4,9.4-9.4s9.4,4.2,9.4,9.4C113.8,209.6,109.6,213.9,104.4,213.9z"/></g></g>
</svg>