<!--?xml version="1.0" encoding="utf-8"?-->
<!-- Svg Vector Icons : http://www.onlinewebfonts.com/icon -->

<svg version="1.1" xmlns="http://www.w3.org/2000/svg" xmlns:xlink="http://www.w3.org/1999/xlink" x="0px" y="0px" viewBox="0 0 256 256" enable-background="new 0 0 256 256" xml:space="preserve">
<metadata> Svg Vector Icons : http://www.onlinewebfonts.com/icon </metadata>
<g><g><path fill="#ffffff" data-title="Layer 0" xs="0" d="M99.7,151.8c-32.1,0-58.1-26.1-58.1-58.1c0-32.1,26.1-58.1,58.1-58.1c32.1,0,58.1,26.1,58.1,58.1S131.7,151.8,99.7,151.8z M99.7,47.2c-25.6,0-46.5,20.9-46.5,46.5c0,25.6,20.9,46.5,46.5,46.5s46.5-20.9,46.5-46.5C146.2,68,125.3,47.2,99.7,47.2z"/><path fill="#ffffff" data-title="Layer 1" xs="1" d="M183.6,220.4c-3.2,0-5.8-2.6-5.8-5.8c0-34.3-35-62.2-78.1-62.2c-43.1,0-78.1,27.9-78.1,62.2c0,3.2-2.6,5.8-5.8,5.8s-5.8-2.6-5.8-5.8c0-10.1,2.4-19.9,7.2-29.2c4.6-8.8,11.2-16.7,19.5-23.4c16.9-13.7,39.3-21.2,63-21.2s46.1,7.5,63,21.2c8.3,6.7,14.9,14.6,19.5,23.4c4.8,9.2,7.2,19,7.2,29.2C189.4,217.8,186.8,220.4,183.6,220.4z"/><path fill="#ffffff" data-title="Layer 2" xs="2" d="M240.2,81.8h-61c-3.2,0-5.8-2.6-5.8-5.8l0,0c0-3.2,2.6-5.8,5.8-5.8h61c3.2,0,5.8,2.6,5.8,5.8l0,0C246,79.2,243.4,81.8,240.2,81.8z"/><path fill="#ffffff" data-title="Layer 3" xs="3" d="M240.2,150.9h-75.6c-3.2,0-5.8-2.6-5.8-5.8l0,0c0-3.2,2.6-5.8,5.8-5.8h75.6c3.2,0,5.8,2.6,5.8,5.8l0,0C246,148.3,243.4,150.9,240.2,150.9z"/><path fill="#ffffff" data-title="Layer 4" xs="4" d="M240.2,220.4h-32c-3.2,0-5.8-2.6-5.8-5.8l0,0c0-3.2,2.6-5.8,5.8-5.8h32c3.2,0,5.8,2.6,5.8,5.8l0,0C246,217.8,243.4,220.4,240.2,220.4z"/></g></g>
</svg>