<svg width="300" height="300" viewBox="0 0 300 300" fill="none" xmlns="http://www.w3.org/2000/svg">
<path d="M225 300H75C58.4301 299.98 42.5445 293.389 30.8277 281.672C19.111 269.956 12.5198 254.07 12.5 237.5V62.5C12.5198 45.9301 19.111 30.0445 30.8277 18.3277C42.5445 6.61102 58.4301 0.0198482 75 0L225 0C241.57 0.0198482 257.456 6.61102 269.172 18.3277C280.889 30.0445 287.48 45.9301 287.5 62.5V237.5C287.48 254.07 280.889 269.956 269.172 281.672C257.456 293.389 241.57 299.98 225 300V300ZM75 25C65.0544 25 55.5161 28.9509 48.4835 35.9835C41.4509 43.0161 37.5 52.5544 37.5 62.5V237.5C37.5 247.446 41.4509 256.984 48.4835 264.017C55.5161 271.049 65.0544 275 75 275H225C234.946 275 244.484 271.049 251.517 264.017C258.549 256.984 262.5 247.446 262.5 237.5V62.5C262.5 52.5544 258.549 43.0161 251.517 35.9835C244.484 28.9509 234.946 25 225 25H75ZM200 125H100C90.0544 125 80.5161 121.049 73.4835 114.017C66.4509 106.984 62.5 97.4456 62.5 87.5C62.5 77.5544 66.4509 68.0161 73.4835 60.9835C80.5161 53.9509 90.0544 50 100 50H200C209.946 50 219.484 53.9509 226.517 60.9835C233.549 68.0161 237.5 77.5544 237.5 87.5C237.5 97.4456 233.549 106.984 226.517 114.017C219.484 121.049 209.946 125 200 125V125ZM100 75C96.6848 75 93.5054 76.317 91.1612 78.6612C88.817 81.0054 87.5 84.1848 87.5 87.5C87.5 90.8152 88.817 93.9946 91.1612 96.3388C93.5054 98.683 96.6848 100 100 100H200C203.315 100 206.495 98.683 208.839 96.3388C211.183 93.9946 212.5 90.8152 212.5 87.5C212.5 84.1848 211.183 81.0054 208.839 78.6612C206.495 76.317 203.315 75 200 75H100ZM75 162.5C72.5277 162.5 70.111 163.233 68.0554 164.607C65.9998 165.98 64.3976 167.932 63.4515 170.216C62.5054 172.501 62.2579 175.014 62.7402 177.439C63.2225 179.863 64.413 182.091 66.1612 183.839C67.9093 185.587 70.1366 186.778 72.5614 187.26C74.9861 187.742 77.4995 187.495 79.7835 186.548C82.0676 185.602 84.0199 184 85.3934 181.945C86.7669 179.889 87.5 177.472 87.5 175C87.5 171.685 86.183 168.505 83.8388 166.161C81.4946 163.817 78.3152 162.5 75 162.5ZM125 162.5C122.528 162.5 120.111 163.233 118.055 164.607C116 165.98 114.398 167.932 113.452 170.216C112.505 172.501 112.258 175.014 112.74 177.439C113.222 179.863 114.413 182.091 116.161 183.839C117.909 185.587 120.137 186.778 122.561 187.26C124.986 187.742 127.499 187.495 129.784 186.548C132.068 185.602 134.02 184 135.393 181.945C136.767 179.889 137.5 177.472 137.5 175C137.5 171.685 136.183 168.505 133.839 166.161C131.495 163.817 128.315 162.5 125 162.5ZM175 162.5C172.528 162.5 170.111 163.233 168.055 164.607C166 165.98 164.398 167.932 163.452 170.216C162.505 172.501 162.258 175.014 162.74 177.439C163.222 179.863 164.413 182.091 166.161 183.839C167.909 185.587 170.137 186.778 172.561 187.26C174.986 187.742 177.499 187.495 179.784 186.548C182.068 185.602 184.02 184 185.393 181.945C186.767 179.889 187.5 177.472 187.5 175C187.5 171.685 186.183 168.505 183.839 166.161C181.495 163.817 178.315 162.5 175 162.5ZM75 212.5C72.5277 212.5 70.111 213.233 68.0554 214.607C65.9998 215.98 64.3976 217.932 63.4515 220.216C62.5054 222.501 62.2579 225.014 62.7402 227.439C63.2225 229.863 64.413 232.091 66.1612 233.839C67.9093 235.587 70.1366 236.778 72.5614 237.26C74.9861 237.742 77.4995 237.495 79.7835 236.548C82.0676 235.602 84.0199 234 85.3934 231.945C86.7669 229.889 87.5 227.472 87.5 225C87.5 221.685 86.183 218.505 83.8388 216.161C81.4946 213.817 78.3152 212.5 75 212.5ZM125 212.5C122.528 212.5 120.111 213.233 118.055 214.607C116 215.98 114.398 217.932 113.452 220.216C112.505 222.501 112.258 225.014 112.74 227.439C113.222 229.863 114.413 232.091 116.161 233.839C117.909 235.587 120.137 236.778 122.561 237.26C124.986 237.742 127.499 237.495 129.784 236.548C132.068 235.602 134.02 234 135.393 231.945C136.767 229.889 137.5 227.472 137.5 225C137.5 221.685 136.183 218.505 133.839 216.161C131.495 213.817 128.315 212.5 125 212.5ZM225 162.5C222.528 162.5 220.111 163.233 218.055 164.607C216 165.98 214.398 167.932 213.452 170.216C212.505 172.501 212.258 175.014 212.74 177.439C213.222 179.863 214.413 182.091 216.161 183.839C217.909 185.587 220.137 186.778 222.561 187.26C224.986 187.742 227.499 187.495 229.784 186.548C232.068 185.602 234.02 184 235.393 181.945C236.767 179.889 237.5 177.472 237.5 175C237.5 171.685 236.183 168.505 233.839 166.161C231.495 163.817 228.315 162.5 225 162.5ZM237.5 225C237.5 221.685 236.183 218.505 233.839 216.161C231.495 213.817 228.315 212.5 225 212.5H175C171.685 212.5 168.505 213.817 166.161 216.161C163.817 218.505 162.5 221.685 162.5 225C162.5 228.315 163.817 231.495 166.161 233.839C168.505 236.183 171.685 237.5 175 237.5H225C228.315 237.5 231.495 236.183 233.839 233.839C236.183 231.495 237.5 228.315 237.5 225Z" fill="white"/>
</svg>
