<svg width="300" height="300" viewBox="0 0 300 300" fill="none" xmlns="http://www.w3.org/2000/svg">
<g clip-path="url(#clip0_1148_149)">
<path d="M296.343 3.66471C293.999 1.32133 290.82 0.00488281 287.505 0.00488281C284.191 0.00488281 281.012 1.32133 278.668 3.66471L150.005 132.327L21.3426 3.66471C18.9985 1.32133 15.8197 0.00488281 12.5051 0.00488281C9.19059 0.00488281 6.01174 1.32133 3.66764 3.66471V3.66471C1.32426 6.00881 0.0078125 9.18766 0.0078125 12.5022C0.0078125 15.8168 1.32426 18.9956 3.66764 21.3397L132.33 150.002L3.66764 278.665C1.32426 281.009 0.0078125 284.188 0.0078125 287.502C0.0078125 290.817 1.32426 293.996 3.66764 296.34V296.34C6.01174 298.683 9.19059 300 12.5051 300C15.8197 300 18.9985 298.683 21.3426 296.34L150.005 167.677L278.668 296.34C281.012 298.683 284.191 300 287.505 300C290.82 300 293.999 298.683 296.343 296.34C298.686 293.996 300.002 290.817 300.002 287.502C300.002 284.188 298.686 281.009 296.343 278.665L167.68 150.002L296.343 21.3397C298.686 18.9956 300.002 15.8168 300.002 12.5022C300.002 9.18766 298.686 6.00881 296.343 3.66471V3.66471Z" fill="white"/>
</g>
<defs>
<clipPath id="clip0_1148_149">
<rect width="300" height="300" fill="white"/>
</clipPath>
</defs>
</svg>
