<svg width="300" height="300" viewBox="0 0 300 300" fill="none" xmlns="http://www.w3.org/2000/svg">
<path d="M225.004 74.9997C222.66 72.6563 219.481 71.3398 216.166 71.3398C212.852 71.3398 209.673 72.6563 207.329 74.9997L150.004 132.325L92.6786 74.9997C90.3345 72.6563 87.1556 71.3398 83.8411 71.3398C80.5265 71.3398 77.3477 72.6563 75.0036 74.9997C72.6602 77.3438 71.3438 80.5226 71.3438 83.8372C71.3438 87.1517 72.6602 90.3306 75.0036 92.6747L132.329 150L75.0036 207.325C72.6602 209.669 71.3438 212.848 71.3438 216.162C71.3438 219.477 72.6602 222.656 75.0036 225C77.3477 227.343 80.5265 228.66 83.8411 228.66C87.1556 228.66 90.3345 227.343 92.6786 225L150.004 167.675L207.329 225C209.673 227.343 212.852 228.66 216.166 228.66C219.481 228.66 222.66 227.343 225.004 225C227.347 222.656 228.663 219.477 228.663 216.162C228.663 212.848 227.347 209.669 225.004 207.325L167.679 150L225.004 92.6747C227.347 90.3306 228.663 87.1517 228.663 83.8372C228.663 80.5226 227.347 77.3438 225.004 74.9997Z" fill="white"/>
</svg>
