<svg width="300" height="300" viewBox="0 0 300 300" fill="none" xmlns="http://www.w3.org/2000/svg">
<g clip-path="url(#clip0_1145_127)">
<path d="M200.001 100.002C197.657 97.6582 194.478 96.3418 191.163 96.3418C187.849 96.3418 184.67 97.6582 182.326 100.002L150.001 132.327L117.676 100.002C115.319 97.7247 112.161 96.4647 108.884 96.4932C105.606 96.5217 102.471 97.8363 100.153 100.154C97.8357 102.471 96.5211 105.607 96.4927 108.884C96.4642 112.162 97.7241 115.319 100.001 117.677L132.326 150.002L100.001 182.327C97.7241 184.684 96.4642 187.842 96.4927 191.119C96.5211 194.397 97.8357 197.532 100.153 199.849C102.471 202.167 105.606 203.482 108.884 203.51C112.161 203.539 115.319 202.279 117.676 200.002L150.001 167.677L182.326 200.002C184.683 202.279 187.841 203.539 191.118 203.51C194.396 203.482 197.531 202.167 199.849 199.849C202.166 197.532 203.481 194.397 203.509 191.119C203.538 187.842 202.278 184.684 200.001 182.327L167.676 150.002L200.001 117.677C202.344 115.333 203.661 112.154 203.661 108.839C203.661 105.525 202.344 102.346 200.001 100.002Z" fill="white"/>
<path d="M150 0C120.333 0 91.3319 8.79735 66.6645 25.2796C41.9972 41.7618 22.7713 65.1886 11.4181 92.5975C0.0649929 120.006 -2.90551 150.166 2.88228 179.264C8.67006 208.361 22.9562 235.088 43.9341 256.066C64.9119 277.044 91.6394 291.33 120.737 297.118C149.834 302.906 179.994 299.935 207.403 288.582C234.812 277.229 258.238 258.003 274.721 233.336C291.203 208.668 300 179.667 300 150C299.957 110.231 284.14 72.1026 256.019 43.9815C227.897 15.8604 189.769 0.0430135 150 0V0ZM150 275C125.277 275 101.11 267.669 80.5538 253.934C59.9976 240.199 43.9761 220.676 34.5151 197.835C25.0542 174.995 22.5788 149.861 27.4019 125.614C32.2251 101.366 44.1302 79.0932 61.6117 61.6117C79.0933 44.1301 101.366 32.225 125.614 27.4018C149.861 22.5787 174.995 25.0541 197.836 34.5151C220.676 43.976 240.199 59.9976 253.934 80.5537C267.669 101.11 275 125.277 275 150C274.964 183.141 261.782 214.914 238.348 238.348C214.914 261.782 183.141 274.964 150 275V275Z" fill="white"/>
</g>
<defs>
<clipPath id="clip0_1145_127">
<rect width="300" height="300" fill="white"/>
</clipPath>
</defs>
</svg>
