<!--?xml version="1.0" encoding="utf-8"?-->
<!-- Svg Vector Icons : http://www.onlinewebfonts.com/icon -->

<svg version="1.1" xmlns="http://www.w3.org/2000/svg" xmlns:xlink="http://www.w3.org/1999/xlink" x="0px" y="0px" viewBox="0 0 256 256" enable-background="new 0 0 256 256" xml:space="preserve">
<metadata> Svg Vector Icons : http://www.onlinewebfonts.com/icon </metadata>
<g> <path fill="#ffffff" data-title="Layer 0" xs="0" d="M246,143.7c0-12.2-6.5-22.1-15.4-24.2c3.9-5,6.1-11.4,6.1-18.3c0-18.1-11.8-37.9-31.5-52.9 c-21.1-16.1-48.6-25-77.2-25c-28.6,0-56,8.9-77.2,25c-19.7,15-31.5,34.8-31.5,52.9c0,6.4,2.3,13,6.4,18.2 c-9.1,1.9-15.8,11.9-15.8,24.3c0,9.6,0,24.8,11.9,29c0.6,2.2,1.5,4.3,2.9,6.2c-0.2,0.6-0.5,1.2-0.5,1.9V203 c0,16.4,13.6,29.6,30,29.6h147.2c16.4,0,29.5-13.2,29.5-29.6v-22.2c0-0.4,0.1-0.7,0-1.1c1.5-2,2.5-4.3,3-7.1 C245.9,168.6,246,153.9,246,143.7z M57.4,56.9c19.3-14.7,44.4-22.8,70.6-22.8c26.3,0,51.4,8.1,70.6,22.8c17,13,27.2,29.4,27.2,44.2 c0,12.3-9,17.7-18,17.7H48.1c-8.8,0-17.9-6.6-17.9-17.7C30.2,86.3,40.3,69.9,57.4,56.9z M28.9,129.7h19.2h159.8h19.2 c4.6,0,8.1,7.4,8.1,13.9c0,16.6-2.3,19-6.6,19.2c-2.6-0.2-4.7-1.2-6.9-2.9c-2.1-1.9-4.2-4.5-6.2-6.9c-1.5-1.8-3.1-3.6-4.7-5.4 c-3.9-4.4-8.5-8.2-14.7-8.5c-0.3,0-0.6,0-0.9,0c-8.3,0-14.1,6.7-19.8,13.2c-0.6,0.6-1.1,1.3-1.7,1.9c-4.2,4.5-8.4,8.7-12.3,8.7 c-0.3,0-0.5,0-0.8-0.1c-3.7-0.6-8.3-5.7-12.3-10.3c-0.4-0.5-0.9-1-1.3-1.5c-4.9-5.9-10.6-12-18.5-12c-0.1,0-0.1,0-0.1,0 c0,0-0.1,0-0.1,0c-7.9,0-13.8,6.4-19.6,12.7c-4.9,5.3-10,10.8-15.2,11.1c-5.1-0.2-9.8-5.3-14.8-10.7c-3.1-3.4-6.3-6.9-9.9-9.4 c-2.8-2.1-5.9-3.5-9.4-3.6c-0.4,0-0.8-0.1-1.2-0.1c-9.1,0-15.1,7.7-19.9,14.2c-3.7,4.7-7.2,9.1-11.1,9.5c-3.8-0.3-6.4-2.5-6.4-19.3 C20.8,137.1,24.3,129.7,28.9,129.7z M215.9,175.1H39.5c-2.4,0-4.3-0.9-5.6-2.4c5.2-2.1,9-7.2,12.7-12.3c0.1-0.2,0.3-0.3,0.4-0.5 c0,0,0.1-0.1,0.1-0.1c3.9-5,7.6-9.7,11.7-9.8c1.4,0.2,2.8,0.9,4.3,2c2.2,1.8,4.5,4.4,6.9,7.1c6.1,6.9,13,14.7,23.2,14.7 c0.1,0,0.2,0,0.3,0c0.1,0,0.2,0,0.3,0c10.1,0,17-7.7,23.1-14.5c4-4.5,8.2-9.2,11.6-9.3c2.9,0.1,6.8,4.1,10.4,8.2 c0.3,0.4,0.7,0.8,1,1.2c5.3,6.3,11.2,13.4,19.8,14.3c0.5,0.1,1.1,0.1,1.6,0.1c0,0,0,0,0.1,0s0,0,0.1,0c8.6,0,14.9-6.2,20.3-12.3 c0.6-0.7,1.3-1.4,1.9-2.1c4-4.4,8.5-9.4,11.6-9.4c0.1,0,0.2,0,0.4,0c2.1,0.3,4.6,2.3,7,4.8c1,1.1,2.1,2.5,3.3,3.9 c2.5,3.1,5.3,6.5,8.7,9.4c2.5,2.3,5.2,3.9,8.3,4.9C221.5,174.8,219.2,175.1,215.9,175.1z M220.3,203c0,10.4-8.3,18.8-18.7,18.8 H54.4c-10.4,0-19.2-8.4-19.2-18.8v-16.9h4.3h176.5h4.4V203z M101.8,62.6c3.1,0,5.7-2.5,5.7-5.7s-2.5-5.7-5.7-5.7 c-3.1,0-5.7,2.5-5.7,5.7S98.7,62.6,101.8,62.6z M73.1,92.9c3.1,0,5.7-2.5,5.7-5.7s-2.5-5.7-5.7-5.7c-3.1,0-5.7,2.5-5.7,5.7 S70,92.9,73.1,92.9z M155.4,62.6c3.1,0,5.7-2.5,5.7-5.7s-2.6-5.7-5.7-5.7c-3.1,0-5.7,2.5-5.7,5.7S152.3,62.6,155.4,62.6z M128.6,92.9c3.1,0,5.7-2.5,5.7-5.7s-2.5-5.7-5.7-5.7c-3.1,0-5.7,2.5-5.7,5.7S125.5,92.9,128.6,92.9z M184.1,92.9 c3.1,0,5.7-2.5,5.7-5.7s-2.5-5.7-5.7-5.7c-3.1,0-5.7,2.5-5.7,5.7S181,92.9,184.1,92.9z"/></g>
</svg>