<svg width="300" height="300" viewBox="0 0 300 300" fill="none" xmlns="http://www.w3.org/2000/svg">
<g clip-path="url(#clip0_1102_46)">
<path d="M300.003 175.075C299.988 169.832 298.867 164.652 296.713 159.872C294.559 155.093 291.42 150.821 287.503 147.337V125C287.466 91.8591 274.285 60.086 250.851 36.6518C227.417 13.2177 195.644 0.036395 162.503 0L137.503 0C104.362 0.036395 72.5888 13.2177 49.1546 36.6518C25.7205 60.086 12.5392 91.8591 12.5028 125V147.962C8.6186 151.628 5.52411 156.048 3.4091 160.952C1.29408 165.856 0.203125 171.141 0.203125 176.481C0.203125 181.822 1.29408 187.106 3.4091 192.01C5.52411 196.914 8.6186 201.335 12.5028 205V212.5C12.5293 235.698 21.7565 257.939 38.1602 274.343C54.5639 290.746 76.8045 299.974 100.003 300H200.003C223.201 299.974 245.442 290.746 261.845 274.343C278.249 257.939 287.476 235.698 287.503 212.5V202.825C291.422 199.34 294.561 195.066 296.715 190.284C298.869 185.502 299.989 180.32 300.003 175.075V175.075ZM35.1528 189.475C32.036 188.53 29.3561 186.508 27.5903 183.772C25.8245 181.035 25.0876 177.76 25.5108 174.531C25.934 171.301 27.4898 168.327 29.9011 166.137C32.3124 163.948 35.4226 162.685 38.6778 162.575H262.503C265.818 162.575 268.997 163.892 271.342 166.236C273.686 168.58 275.003 171.76 275.003 175.075C275.003 178.39 273.686 181.57 271.342 183.914C268.997 186.258 265.818 187.575 262.503 187.575H212.503C188.053 187.575 162.765 197.425 132.953 218.587C126.95 222.756 119.817 224.991 112.509 224.991C105.201 224.991 98.0676 222.756 92.0653 218.587C89.2153 216.562 86.4778 214.45 83.7278 212.337C70.111 200.144 53.227 192.198 35.1528 189.475V189.475ZM37.5028 125C37.5326 98.4875 48.0778 73.0694 66.825 54.3222C85.5722 35.575 110.99 25.0298 137.503 25H162.503C189.015 25.0298 214.433 35.575 233.181 54.3222C251.928 73.0694 262.473 98.4875 262.503 125V137.575L37.5028 137.7V125ZM200.003 275H100.003C83.9926 274.957 68.6107 268.765 57.0367 257.703C45.4627 246.641 38.5814 231.554 37.8153 215.563C49.1611 218.706 59.6482 224.377 68.4903 232.15C71.4778 234.463 74.4778 236.763 77.6028 238.975C87.8486 246.094 100.026 249.91 112.503 249.91C124.979 249.91 137.157 246.094 147.403 238.975C165.897 223.732 188.616 214.519 212.503 212.575H262.503C262.483 229.138 255.889 245.016 244.17 256.721C232.452 268.426 216.566 275 200.003 275V275ZM112.503 62.5C112.503 59.1848 113.82 56.0054 116.164 53.6612C118.508 51.317 121.688 50 125.003 50C128.318 50 131.497 51.317 133.842 53.6612C136.186 56.0054 137.503 59.1848 137.503 62.5C137.503 65.8152 136.186 68.9946 133.842 71.3388C131.497 73.683 128.318 75 125.003 75C121.688 75 118.508 73.683 116.164 71.3388C113.82 68.9946 112.503 65.8152 112.503 62.5ZM75.0028 100C75.0028 96.6848 76.3198 93.5054 78.664 91.1612C81.0082 88.817 84.1876 87.5 87.5028 87.5C90.818 87.5 93.9974 88.817 96.3416 91.1612C98.6858 93.5054 100.003 96.6848 100.003 100C100.003 103.315 98.6858 106.495 96.3416 108.839C93.9974 111.183 90.818 112.5 87.5028 112.5C84.1876 112.5 81.0082 111.183 78.664 108.839C76.3198 106.495 75.0028 103.315 75.0028 100V100Z" fill="white"/>
</g>
<defs>
<clipPath id="clip0_1102_46">
<rect width="300" height="300" fill="white"/>
</clipPath>
</defs>
</svg>
