<svg width="300" height="300" viewBox="0 0 300 300" fill="none" xmlns="http://www.w3.org/2000/svg">
<g clip-path="url(#clip0_1147_144)">
<path d="M287.5 137.5H236.5C235.526 130.613 233.726 123.869 231.137 117.412L275.225 91.8625C276.698 91.0696 277.998 89.9889 279.046 88.6845C280.094 87.3801 280.869 85.8786 281.326 84.269C281.783 82.6593 281.912 80.9743 281.706 79.3138C281.5 77.6533 280.962 76.0512 280.125 74.6023C279.288 73.1534 278.169 71.8874 276.833 70.8791C275.498 69.8709 273.974 69.1411 272.351 68.7329C270.728 68.3246 269.04 68.2464 267.387 68.5027C265.733 68.759 264.148 69.3447 262.725 70.225L218.6 95.8125C214.382 90.4839 209.562 85.6603 204.238 81.4375L229.813 37.3C231.353 34.4382 231.718 31.089 230.83 27.9626C229.942 24.8363 227.872 22.1785 225.058 20.5528C222.244 18.9271 218.907 18.4613 215.756 19.2542C212.604 20.047 209.885 22.0362 208.175 24.8L182.588 68.8625C176.132 66.2716 169.388 64.471 162.5 63.5V12.5C162.5 9.18479 161.183 6.00537 158.839 3.66117C156.495 1.31696 153.315 0 150 0C146.685 0 143.505 1.31696 141.161 3.66117C138.817 6.00537 137.5 9.18479 137.5 12.5V63.5C130.612 64.471 123.868 66.2716 117.412 68.8625L91.8625 24.775C90.1527 22.0112 87.4336 20.022 84.2819 19.2292C81.1302 18.4363 77.7936 18.9021 74.9795 20.5278C72.1654 22.1535 70.0951 24.8113 69.2075 27.9376C68.32 31.064 68.6849 34.4132 70.225 37.275L95.8 81.4375C90.4751 85.6603 85.6557 90.4839 81.4375 95.8125L37.3125 70.225C35.8895 69.3447 34.3043 68.759 32.6508 68.5027C30.9973 68.2464 29.3092 68.3246 27.6865 68.7329C26.0638 69.1411 24.5395 69.8709 23.2041 70.8791C21.8688 71.8874 20.7494 73.1534 19.9124 74.6023C19.0754 76.0512 18.5378 77.6533 18.3314 79.3138C18.1251 80.9743 18.2543 82.6593 18.7112 84.269C19.1682 85.8786 19.9437 87.3801 20.9918 88.6845C22.0398 89.9889 23.339 91.0696 24.8125 91.8625L68.8625 117.412C66.2743 123.869 64.4739 130.613 63.5 137.5H12.5C9.18479 137.5 6.00537 138.817 3.66117 141.161C1.31696 143.505 0 146.685 0 150C0 153.315 1.31696 156.495 3.66117 158.839C6.00537 161.183 9.18479 162.5 12.5 162.5H63.5C64.4739 169.387 66.2743 176.131 68.8625 182.588L24.775 208.137C23.3015 208.93 22.0023 210.011 20.9542 211.315C19.9062 212.62 19.1307 214.121 18.6737 215.731C18.2168 217.341 18.0876 219.026 18.2939 220.686C18.5003 222.347 19.0379 223.949 19.8749 225.398C20.7119 226.847 21.8313 228.113 23.1666 229.121C24.502 230.129 26.0263 230.859 27.649 231.267C29.2717 231.675 30.9598 231.754 32.6133 231.497C34.2668 231.241 35.852 230.655 37.275 229.775L81.4 204.187C85.6182 209.516 90.4376 214.34 95.7625 218.563L70.225 262.7C68.6849 265.562 68.32 268.911 69.2075 272.037C70.0951 275.164 72.1654 277.822 74.9795 279.447C77.7936 281.073 81.1302 281.539 84.2819 280.746C87.4336 279.953 90.1527 277.964 91.8625 275.2L117.412 231.113C123.868 233.707 130.613 235.515 137.5 236.5V287.5C137.5 290.815 138.817 293.995 141.161 296.339C143.505 298.683 146.685 300 150 300C153.315 300 156.495 298.683 158.839 296.339C161.183 293.995 162.5 290.815 162.5 287.5V236.5C169.386 235.523 176.131 233.723 182.588 231.137L208.137 275.225C209.847 277.989 212.566 279.978 215.718 280.771C218.87 281.564 222.206 281.098 225.021 279.472C227.835 277.847 229.905 275.189 230.792 272.062C231.68 268.936 231.315 265.587 229.775 262.725L204.2 218.587C209.525 214.365 214.344 209.541 218.563 204.212L262.687 229.8C264.11 230.68 265.696 231.266 267.349 231.522C269.003 231.779 270.691 231.7 272.314 231.292C273.936 230.884 275.46 230.154 276.796 229.146C278.131 228.138 279.251 226.872 280.088 225.423C280.925 223.974 281.462 222.372 281.669 220.711C281.875 219.051 281.746 217.366 281.289 215.756C280.832 214.146 280.056 212.645 279.008 211.34C277.96 210.036 276.661 208.955 275.187 208.162L231.1 182.613C233.703 176.15 235.516 169.397 236.5 162.5H287.5C290.815 162.5 293.995 161.183 296.339 158.839C298.683 156.495 300 153.315 300 150C300 146.685 298.683 143.505 296.339 141.161C293.995 138.817 290.815 137.5 287.5 137.5ZM150 212.5C67.4 209.875 67.425 90.1125 150 87.5C232.6 90.125 232.575 209.887 150 212.5Z" fill="white"/>
</g>
<defs>
<clipPath id="clip0_1147_144">
<rect width="300" height="300" fill="white"/>
</clipPath>
</defs>
</svg>
