<svg width="300" height="300" viewBox="0 0 300 300" fill="none" xmlns="http://www.w3.org/2000/svg">
<g clip-path="url(#clip0_1131_109)">
<path d="M288.15 145.675L265.412 94.5376C259.52 81.2805 249.909 70.0169 237.744 62.1119C225.579 54.2068 211.383 49.9996 196.875 50.0001H180L171.75 16.9751C170.533 12.1283 167.732 7.82676 163.792 4.75334C159.851 1.67993 154.997 0.0107422 150 0.0107422C145.003 0.0107422 140.149 1.67993 136.208 4.75334C132.268 7.82676 129.467 12.1283 128.25 16.9751L120 50.0001H62.5C45.9301 50.02 30.0445 56.6112 18.3277 68.3279C6.61102 80.0446 0.0198482 95.9302 0 112.5L0 212.5C0.02682 220.387 2.54439 228.063 7.19334 234.434C11.8423 240.805 18.385 245.544 25.8875 247.975C25.3217 250.698 25.0244 253.469 25 256.25C25 267.853 29.6094 278.981 37.8141 287.186C46.0188 295.391 57.1468 300 68.75 300C80.3532 300 91.4812 295.391 99.6859 287.186C107.891 278.981 112.5 267.853 112.5 256.25C112.48 254.157 112.309 252.068 111.987 250H188.013C187.691 252.068 187.52 254.157 187.5 256.25C187.5 267.853 192.109 278.981 200.314 287.186C208.519 295.391 219.647 300 231.25 300C242.853 300 253.981 295.391 262.186 287.186C270.391 278.981 275 267.853 275 256.25C274.976 253.469 274.678 250.698 274.113 247.975C281.615 245.544 288.158 240.805 292.807 234.434C297.456 228.063 299.973 220.387 300 212.5V201.525C300.027 182.282 295.989 163.25 288.15 145.675V145.675ZM242.575 104.7L257.162 137.5H212.5C209.185 137.5 206.005 136.183 203.661 133.839C201.317 131.495 200 128.315 200 125V75.2251C209.111 75.7838 217.895 78.826 225.4 84.0218C232.905 89.2176 238.845 96.3689 242.575 104.7ZM87.5 256.25C87.5 261.223 85.5246 265.992 82.0083 269.508C78.4919 273.025 73.7228 275 68.75 275C63.7772 275 59.0081 273.025 55.4917 269.508C51.9754 265.992 50 261.223 50 256.25C50.0077 254.114 50.4015 251.996 51.1625 250H86.3375C87.0985 251.996 87.4923 254.114 87.5 256.25ZM231.25 275C226.277 275 221.508 273.025 217.992 269.508C214.475 265.992 212.5 261.223 212.5 256.25C212.508 254.114 212.902 251.996 213.663 250H248.837C249.598 251.996 249.992 254.114 250 256.25C250 261.223 248.025 265.992 244.508 269.508C240.992 273.025 236.223 275 231.25 275ZM275 212.5C275 215.815 273.683 218.995 271.339 221.339C268.995 223.683 265.815 225 262.5 225H37.5C34.1848 225 31.0054 223.683 28.6612 221.339C26.317 218.995 25 215.815 25 212.5V112.5C25 102.555 28.9509 93.0163 35.9835 85.9836C43.0161 78.951 52.5544 75.0001 62.5 75.0001H175V125C175 134.946 178.951 144.484 185.983 151.517C193.016 158.549 202.554 162.5 212.5 162.5H267.863C272.556 174.977 274.974 188.195 275 201.525V212.5ZM137.5 150C137.5 153.315 136.183 156.495 133.839 158.839C131.495 161.183 128.315 162.5 125 162.5H112.5V175C112.5 178.315 111.183 181.495 108.839 183.839C106.495 186.183 103.315 187.5 100 187.5C96.6848 187.5 93.5054 186.183 91.1612 183.839C88.817 181.495 87.5 178.315 87.5 175V162.5H75C71.6848 162.5 68.5054 161.183 66.1612 158.839C63.817 156.495 62.5 153.315 62.5 150C62.5 146.685 63.817 143.506 66.1612 141.161C68.5054 138.817 71.6848 137.5 75 137.5H87.5V125C87.5 121.685 88.817 118.506 91.1612 116.161C93.5054 113.817 96.6848 112.5 100 112.5C103.315 112.5 106.495 113.817 108.839 116.161C111.183 118.506 112.5 121.685 112.5 125V137.5H125C128.315 137.5 131.495 138.817 133.839 141.161C136.183 143.506 137.5 146.685 137.5 150Z" fill="white"/>
</g>
<defs>
<clipPath id="clip0_1131_109">
<rect width="300" height="300" fill="white"/>
</clipPath>
</defs>
</svg>
