<svg width="300" height="300" viewBox="0 0 300 300" fill="none" xmlns="http://www.w3.org/2000/svg">
<path d="M150 12.5V87.5C149.982 101.903 144.999 115.859 135.891 127.016C126.783 138.173 114.107 145.849 100 148.75V287.5C100 290.815 98.683 293.995 96.3388 296.339C93.9946 298.683 90.8152 300 87.5 300C84.1848 300 81.0054 298.683 78.6612 296.339C76.317 293.995 75 290.815 75 287.5V148.75C60.8927 145.849 48.2168 138.173 39.109 127.016C30.0011 115.859 25.0182 101.903 25 87.5V12.5C25 9.18479 26.317 6.00537 28.6612 3.66117C31.0054 1.31696 34.1848 0 37.5 0C40.8152 0 43.9946 1.31696 46.3388 3.66117C48.683 6.00537 50 9.18479 50 12.5V87.5C50.032 95.2283 52.451 102.758 56.9261 109.059C61.4011 115.36 67.7136 120.124 75 122.7V12.5C75 9.18479 76.317 6.00537 78.6612 3.66117C81.0054 1.31696 84.1848 0 87.5 0C90.8152 0 93.9946 1.31696 96.3388 3.66117C98.683 6.00537 100 9.18479 100 12.5V122.7C107.286 120.124 113.599 115.36 118.074 109.059C122.549 102.758 124.968 95.2283 125 87.5V12.5C125 9.18479 126.317 6.00537 128.661 3.66117C131.005 1.31696 134.185 0 137.5 0C140.815 0 143.995 1.31696 146.339 3.66117C148.683 6.00537 150 9.18479 150 12.5V12.5ZM275 125C274.441 148.756 268.531 172.079 257.71 193.234C246.889 214.389 231.435 232.832 212.5 247.187V287.5C212.5 290.815 211.183 293.995 208.839 296.339C206.495 298.683 203.315 300 200 300C196.685 300 193.505 298.683 191.161 296.339C188.817 293.995 187.5 290.815 187.5 287.5V25C187.388 20.3033 188.671 15.6788 191.188 11.7116C193.704 7.74439 197.341 4.61264 201.638 2.7125C206.573 0.704565 211.987 0.177877 217.217 1.1968C222.447 2.21573 227.267 4.73613 231.087 8.45C260.079 40.2619 275.792 81.9662 275 125V125ZM250 125C250.355 88.4019 236.974 53.001 212.5 25.7875V213.375C235.926 189.853 249.361 158.191 250 125Z" fill="white"/>
</svg>
