<!--?xml version="1.0" encoding="utf-8"?-->
<!-- Svg Vector Icons : http://www.onlinewebfonts.com/icon -->

<svg version="1.1" xmlns="http://www.w3.org/2000/svg" xmlns:xlink="http://www.w3.org/1999/xlink" x="0px" y="0px" viewBox="0 0 256 256" enable-background="new 0 0 256 256" xml:space="preserve">
<metadata> Svg Vector Icons : http://www.onlinewebfonts.com/icon </metadata>
<g><g><g><path fill="#ffffff" data-title="Layer 0" xs="0" d="M73.5,10.7c-5.4,1.8-10.3,5.9-13,11.1l-1.5,3l-0.2,57.2c-0.2,63.1-0.2,61,3.2,66.4c2,3.1,5.1,5.9,8,7.5l2.2,1.1l0.2,39.1l0.2,39l1.6,3.2c1.9,3.9,5,6.3,8.9,7.3c3.6,0.9,6.8,0.3,10.3-1.8c3.2-1.9,6.1-5.9,6.6-9.4c0.6-3.9,0.4-204.7-0.3-207.8c-1.4-6.5-5.6-11.8-11.7-14.9c-2.4-1.2-3.9-1.5-7.6-1.6C77.5,10,74.9,10.3,73.5,10.7z"/><path fill="#ffffff" data-title="Layer 1" xs="1" d="M131.3,11.1c-3.5,2.1-3.4,0.5-3.4,47.7c0,47.1-0.1,45.3,3.2,49.6c0.9,1.1,2.9,2.7,4.4,3.5c2.4,1.2,3.5,1.4,7.8,1.4h5l0.1,61.2l0.2,61.2l1.7,3c5.6,9.9,18.8,9.9,24.3,0l1.6-3l0.2-61.2l0.1-61.2h5c4.3,0,5.4-0.2,7.8-1.4c3.3-1.6,5.7-4.3,6.9-7.7c1.2-3.5,1.2-87.2,0.1-90c-2.1-5-9.1-5.3-12-0.6c-1,1.6-1,3.5-1.2,36.9L183,85.6h-6.7h-6.8V50.7c0-31.5-0.1-35.1-0.9-36.8c-2.5-5.2-9.7-5.2-12.1,0c-1,2.2-1,4.1-1,37v34.7h-6.8H142l-0.2-35.3c-0.2-33.4-0.2-35.3-1.2-36.9C138.6,10,134.6,9,131.3,11.1z"/></g></g></g>
</svg>