<svg width="300" height="300" viewBox="0 0 300 300" fill="none" xmlns="http://www.w3.org/2000/svg">
<g clip-path="url(#clip0_1151_123)">
<path d="M285.663 14.3504C277.165 5.86536 265.647 1.09961 253.638 1.09961C241.629 1.09961 230.111 5.86536 221.613 14.3504L18.3127 217.65C12.4908 223.44 7.87472 230.326 4.73141 237.91C1.58811 245.495 -0.0199747 253.628 0.000187265 261.838V287.5C0.000187265 290.816 1.31715 293.995 3.66135 296.339C6.00556 298.683 9.18498 300 12.5002 300H38.1627C46.3722 300.024 54.5048 298.418 62.0896 295.277C69.6745 292.136 76.5609 287.521 82.3502 281.7L285.663 78.3879C294.144 69.8903 298.907 58.375 298.907 46.3691C298.907 34.3633 294.144 22.848 285.663 14.3504V14.3504ZM64.6752 264.025C57.6252 271.029 48.0997 274.972 38.1627 275H25.0002V261.838C24.9875 256.912 25.9521 252.032 27.8382 247.481C29.7242 242.93 32.4941 238.799 35.9877 235.325L190.275 81.0379L219.025 109.788L64.6752 264.025ZM267.975 60.7129L236.65 92.0504L207.9 63.3629L239.238 32.0254C241.125 30.1418 243.366 28.6484 245.831 27.6305C248.296 26.6127 250.937 26.0903 253.604 26.0932C256.27 26.0961 258.91 26.6242 261.373 27.6474C263.836 28.6706 266.073 30.1689 267.956 32.0566C269.84 33.9444 271.333 36.1847 272.351 38.6496C273.369 41.1145 273.892 43.7557 273.889 46.4225C273.886 49.0893 273.358 51.7294 272.334 54.1921C271.311 56.6547 269.813 58.8918 267.925 60.7754L267.975 60.7129Z" fill="white"/>
</g>
<defs>
<clipPath id="clip0_1151_123">
<rect width="300" height="300" fill="white"/>
</clipPath>
</defs>
</svg>
