<svg width="300" height="300" viewBox="0 0 300 300" fill="none" xmlns="http://www.w3.org/2000/svg">
<g clip-path="url(#clip0_1145_134)">
<path d="M288.985 11.0254C284.504 6.48945 278.928 3.18605 272.797 1.43431C266.666 -0.317423 260.187 -0.458278 253.985 1.02536L53.9853 43.1504C42.4675 44.7299 31.6195 49.4938 22.6628 56.9055C13.7062 64.3172 6.99672 74.0823 3.28999 85.1012C-0.416731 96.12 -0.973476 107.955 1.68246 119.273C4.3384 130.591 10.1015 140.943 18.3228 149.163L39.7978 170.625C40.9601 171.787 41.8819 173.167 42.5103 174.686C43.1388 176.204 43.4616 177.832 43.4603 179.475V219.075C43.4879 224.643 44.7696 230.133 47.2103 235.138L47.1103 235.225L47.4353 235.55C51.098 242.914 57.0801 248.87 64.4603 252.5L64.7853 252.825L64.8728 252.725C69.8773 255.166 75.3674 256.448 80.9353 256.475H120.535C123.848 256.473 127.027 257.786 129.373 260.125L150.835 281.588C156.592 287.408 163.443 292.032 170.995 295.192C178.547 298.352 186.649 299.986 194.835 300C201.657 299.992 208.433 298.877 214.898 296.7C225.816 293.115 235.515 286.551 242.901 277.747C250.287 268.943 255.065 258.25 256.698 246.875L298.885 46.4379C300.446 40.1834 300.354 33.6306 298.618 27.4224C296.883 21.2142 293.563 15.5637 288.985 11.0254V11.0254ZM57.4978 152.975L36.0103 131.513C31.0068 126.63 27.5 120.421 25.9014 113.615C24.3028 106.809 24.6788 99.6878 26.9853 93.0878C29.2215 86.3169 33.3554 80.3307 38.8953 75.8411C44.4352 71.3516 51.148 68.5477 58.2353 67.7629L256.248 26.0754L68.4353 213.913V179.475C68.4542 174.555 67.4973 169.679 65.62 165.13C63.7426 160.582 60.982 156.45 57.4978 152.975V152.975ZM232.135 242.6C231.176 249.505 228.31 256.005 223.862 261.371C219.413 266.737 213.556 270.757 206.949 272.98C200.343 275.202 193.247 275.539 186.459 273.953C179.672 272.367 173.46 268.921 168.523 264L147.023 242.5C143.552 239.011 139.425 236.244 134.878 234.36C130.332 232.477 125.457 231.513 120.535 231.525H86.0978L273.935 43.7504L232.135 242.6Z" fill="white"/>
</g>
<defs>
<clipPath id="clip0_1145_134">
<rect width="300" height="300" fill="white"/>
</clipPath>
</defs>
</svg>
