<svg width="300" height="300" viewBox="0 0 300 300" fill="none" xmlns="http://www.w3.org/2000/svg">
<path d="M256.175 99.5954L136.925 12.0954C127.611 5.2752 116.59 1.16781 105.085 0.228677C93.5788 -0.710461 82.0378 1.55534 71.7412 6.77485C61.4446 11.9944 52.7947 19.9636 46.7507 29.799C40.7067 39.6343 37.5048 50.9514 37.5 62.4954V237.495C37.5021 249.045 40.7042 260.367 46.7509 270.207C52.7977 280.047 61.4527 288.019 71.7553 293.238C82.0578 298.457 93.6051 300.72 105.116 299.775C116.626 298.829 127.649 294.713 136.963 287.883L256.213 200.383C264.128 194.578 270.566 186.99 275.003 178.234C279.44 169.477 281.752 159.799 281.752 149.983C281.752 140.167 279.44 130.488 275.003 121.732C270.566 112.976 264.128 105.388 256.213 99.5829L256.175 99.5954ZM241.375 180.22L122.125 267.72C116.538 271.803 109.93 274.26 103.032 274.82C96.1347 275.38 89.2169 274.02 83.0446 270.891C76.8722 267.762 71.686 262.986 68.06 257.092C64.4341 251.198 62.5097 244.415 62.5 237.495V62.4954C62.4306 55.5622 64.3187 48.7502 67.9472 42.8419C71.5757 36.9337 76.7975 32.169 83.0125 29.0954C88.2987 26.4065 94.1443 25.0019 100.075 24.9954C108.024 25.0257 115.753 27.6065 122.125 32.3579L241.375 119.858C246.119 123.342 249.976 127.893 252.634 133.144C255.293 138.395 256.678 144.197 256.678 150.083C256.678 155.968 255.293 161.771 252.634 167.022C249.976 172.273 246.119 176.824 241.375 180.308V180.22Z" fill="white"/>
</svg>
