<!--?xml version="1.0" encoding="utf-8"?-->
<!-- Svg Vector Icons : http://www.onlinewebfonts.com/icon -->

<svg version="1.1" xmlns="http://www.w3.org/2000/svg" xmlns:xlink="http://www.w3.org/1999/xlink" x="0px" y="0px" viewBox="0 0 256 256" enable-background="new 0 0 256 256" xml:space="preserve">
<metadata> Svg Vector Icons : http://www.onlinewebfonts.com/icon </metadata>
<g><g><g><path fill="#ffffff" data-title="Layer 0" xs="0" d="M55.5,10.9c-6.7,2.1-11.2,7.3-13.4,15.2c-0.8,2.8-0.8,9.7-0.8,101.8c0,81.9,0.1,99.2,0.7,101.4c3.8,15.2,18.3,21.2,31.9,13.2c4.4-2.6,130.9-93.8,133-95.9c5.1-5.1,7.5-10.4,7.8-17.6c0.1-3.8,0-5.3-0.8-8c-1.3-4.1-3.1-7.4-6.1-10.7c-1.5-1.7-22.6-17.1-67.4-49.3c-35.8-25.8-66.3-47.4-67.6-48.2C67.5,9.9,60.7,9.2,55.5,10.9z M127.3,79c34.7,24.9,63.6,45.8,64.2,46.5c1.5,1.6,1.4,3.6-0.3,5.2c-0.7,0.7-29.7,21.6-64.3,46.5C77,213.1,64,222.2,63.7,221.6c-0.5-1.2-0.3-187.9,0.1-187.9C64,33.7,92.6,54,127.3,79z"/></g></g></g>
</svg>