<!--?xml version="1.0" encoding="utf-8"?-->
<!-- Svg Vector Icons : http://www.onlinewebfonts.com/icon -->

<svg version="1.1" xmlns="http://www.w3.org/2000/svg" xmlns:xlink="http://www.w3.org/1999/xlink" x="0px" y="0px" viewBox="0 0 256 256" enable-background="new 0 0 256 256" xml:space="preserve">
<metadata> Svg Vector Icons : http://www.onlinewebfonts.com/icon </metadata>
<g><g><path fill="#ffffff" data-title="Layer 0" xs="0" d="M234.6,230.5c-5.5-37.5-30.4-68.8-64.3-83.2c20-13.5,33.1-36.3,33.1-62.2c0-41.5-33.7-75.1-75.4-75.1c-41.6,0-75.4,33.6-75.4,75.1c0,25.9,13.1,48.7,33.1,62.2c-33.9,14.4-58.9,45.7-64.3,83.2c-0.7,1.4-1.1,3.1-1.1,4.8c0,5.9,4.8,10.7,10.8,10.7c5.9,0,10.8-4.8,10.8-10.7c0,0,20.8-75.1,86.1-75.1c70.9,0,86.1,75.1,86.1,75.1c0,5.9,4.8,10.7,10.8,10.7c5.9,0,10.8-4.8,10.8-10.7C235.7,233.5,235.3,231.9,234.6,230.5L234.6,230.5z M128,138.7c-29.7,0-53.8-24-53.8-53.6S98.3,31.5,128,31.5c29.7,0,53.8,24,53.8,53.6S157.8,138.7,128,138.7L128,138.7z"/></g></g>
</svg>