<!--?xml version="1.0" encoding="utf-8"?-->
<!-- Svg Vector Icons : http://www.onlinewebfonts.com/icon -->

<svg version="1.1" xmlns="http://www.w3.org/2000/svg" xmlns:xlink="http://www.w3.org/1999/xlink" x="0px" y="0px" viewBox="0 0 256 256" enable-background="new 0 0 256 256" xml:space="preserve">
<metadata> Svg Vector Icons : http://www.onlinewebfonts.com/icon </metadata>
<g><g><path fill="#ffffff" data-title="Layer 0" xs="0" d="M246,245.8h-5.6c-0.2-51.6-35.2-94.8-82.6-107.8c-0.6,0.3-1.1,0.6-1.6,0.9v-1.4v-4.9v-0.9c0.3,0.1,0.7,0.2,1,0.3c19.4-10.4,32.7-30.8,32.7-54.4c0-34.1-27.7-61.8-61.8-61.8S66.2,43.5,66.2,77.6c0,23.6,13.3,44,32.7,54.4c0.4-0.1,0.7-0.2,1.1-0.3v0.9v4.9v1.3c-0.6-0.2-1.1-0.6-1.6-0.9C50.8,151,15.8,194.2,15.6,245.8H10c0.2-52.2,34.3-96.2,81.4-111.6c-18.5-12-30.8-32.8-30.8-56.6c0-37.2,30.2-67.4,67.4-67.4s67.4,30.2,67.4,67.4c0,23.7-12.3,44.6-30.8,56.6C211.7,149.6,245.8,193.6,246,245.8z"/></g></g>
</svg>