<svg width="300" height="300" viewBox="0 0 300 300" fill="none" xmlns="http://www.w3.org/2000/svg">
<g clip-path="url(#clip0_1102_16)">
<path d="M150 149.999C164.834 149.999 179.334 145.6 191.668 137.359C204.001 129.118 213.614 117.405 219.291 103.7C224.968 89.9959 226.453 74.9159 223.559 60.3673C220.665 45.8187 213.522 32.455 203.033 21.966C192.544 11.4771 179.18 4.33405 164.632 1.44016C150.083 -1.45373 135.003 0.0315199 121.299 5.70809C107.594 11.3847 95.8809 20.9976 87.6398 33.3313C79.3987 45.665 75 60.1655 75 74.9991C75.0199 94.8842 82.928 113.949 96.9889 128.01C111.05 142.071 130.115 149.979 150 149.999ZM150 24.9991C159.889 24.9991 169.556 27.9315 177.779 33.4256C186.001 38.9196 192.41 46.7286 196.194 55.8649C199.978 65.0012 200.969 75.0545 199.039 84.7536C197.11 94.4526 192.348 103.362 185.355 110.354C178.363 117.347 169.454 122.109 159.755 124.038C150.055 125.968 140.002 124.977 130.866 121.193C121.73 117.409 113.921 111 108.427 102.778C102.932 94.5551 100 84.8881 100 74.9991C100 61.7382 105.268 49.0205 114.645 39.6437C124.021 30.2669 136.739 24.9991 150 24.9991V24.9991Z" fill="white"/>
<path d="M150 175.008C120.173 175.041 91.5777 186.904 70.487 207.995C49.3964 229.086 37.5331 257.681 37.5 287.508C37.5 290.823 38.817 294.002 41.1612 296.347C43.5054 298.691 46.6848 300.008 50 300.008C53.3152 300.008 56.4946 298.691 58.8388 296.347C61.183 294.002 62.5 290.823 62.5 287.508C62.5 264.301 71.7187 242.045 88.1282 225.636C104.538 209.227 126.794 200.008 150 200.008C173.206 200.008 195.462 209.227 211.872 225.636C228.281 242.045 237.5 264.301 237.5 287.508C237.5 290.823 238.817 294.002 241.161 296.347C243.505 298.691 246.685 300.008 250 300.008C253.315 300.008 256.495 298.691 258.839 296.347C261.183 294.002 262.5 290.823 262.5 287.508C262.467 257.681 250.604 229.086 229.513 207.995C208.422 186.904 179.827 175.041 150 175.008V175.008Z" fill="white"/>
</g>
<defs>
<clipPath id="clip0_1102_16">
<rect width="300" height="300" fill="white"/>
</clipPath>
</defs>
</svg>
