<!--?xml version="1.0" encoding="utf-8"?-->
<!-- Svg Vector Icons : http://www.onlinewebfonts.com/icon -->

<svg version="1.1" xmlns="http://www.w3.org/2000/svg" xmlns:xlink="http://www.w3.org/1999/xlink" x="0px" y="0px" viewBox="0 0 256 256" enable-background="new 0 0 256 256" xml:space="preserve">
<metadata> Svg Vector Icons : http://www.onlinewebfonts.com/icon </metadata>
<g><g><g><path fill="#ffffff" data-title="Layer 0" xs="0" d="M119.7,10.1c-0.9,0.1-3.6,0.4-6,0.7c-19.8,2.2-40.4,10.5-57,23c-5.9,4.4-15.8,14.1-20.7,20.1c-10.8,13.3-19.5,31.3-23.1,47.6c-2.2,9.8-2.8,15.4-2.8,26.8c0,11.8,0.9,19,3.4,28.9c4.1,16.2,12.3,32.5,22.9,45.5c4.5,5.6,14.7,15.4,20.2,19.5c16.5,12.3,35.3,20.1,55.6,23c8.3,1.2,23.6,1.2,31.9,0c20.3-2.9,39.1-10.7,55.6-23c5.5-4.1,15.7-14,20.2-19.5c10.8-13.3,19-29.7,23.1-46.4c2.4-10,3.2-16.8,3.2-28.2c0-19.5-3.7-35.4-12.3-52.6C224.1,56,209,39.4,190.6,27.8c-13.2-8.3-29.3-14.2-45.2-16.6C139.6,10.3,123.7,9.6,119.7,10.1z M138,25.1c18.8,1.8,36.9,8.9,52.4,20.5c5.6,4.2,15.9,14.5,20.1,20.1c25.6,34.4,27.9,79.9,5.8,116.2C199.8,209,171.4,227.3,140,231c-5.6,0.6-18.4,0.6-24,0c-42.4-5.1-77.8-36.2-88.2-77.5c-2.4-9.3-3-14.5-3-25.5c0-13.7,1.7-23.8,6-35.4C47.1,48.3,91.2,20.5,138,25.1z"/><path fill="#ffffff" data-title="Layer 1" xs="1" d="M118.9,62.2c-10.2,1.9-18.7,7.1-22.7,13.9c-3.4,5.7-5.8,15.3-5.2,21.4c0,0.5,2.1,0.6,8.5,0.6h8.5l0.3-3.4c0.3-4.2,1.8-8.8,3.5-11.4c1.6-2.4,5.3-4.8,8.8-5.9c3.6-1.1,11.4-1.1,14.8,0.1c8.6,3,12.6,9.9,11.9,20.7c-0.3,4.9-1.3,8.1-4.1,12.4c-3,4.7-10.4,13.6-15.5,18.8c-2.6,2.6-5.5,5.9-6.4,7.3c-2.2,3.3-3.4,8.2-3.7,15.3l-0.3,5.7h8.8h8.8l0.5-5.8c0.7-7.9,1.4-9.2,9-17.2c14.6-15.3,19.6-23.7,20.6-34.8c0.5-5.3-0.1-11.9-1.6-16.4c-3.2-10.2-11.3-17.6-22.6-20.5C135.9,61.6,123.9,61.2,118.9,62.2z"/><path fill="#ffffff" data-title="Layer 2" xs="2" d="M117.4,185.3v9.2h9.2h9.2v-9.2v-9.2h-9.2h-9.2V185.3z"/></g></g></g>
</svg>