<svg width="300" height="300" viewBox="0 0 300 300" fill="none" xmlns="http://www.w3.org/2000/svg">
<g clip-path="url(#clip0_1102_56)">
<path d="M150 0C120.333 0 91.3319 8.79735 66.6645 25.2796C41.9972 41.7618 22.7713 65.1886 11.4181 92.5975C0.0649929 120.006 -2.90551 150.166 2.88228 179.264C8.67006 208.361 22.9562 235.088 43.9341 256.066C64.9119 277.044 91.6394 291.33 120.737 297.118C149.834 302.906 179.994 299.935 207.403 288.582C234.812 277.229 258.238 258.003 274.721 233.336C291.203 208.668 300 179.667 300 150C299.957 110.231 284.14 72.1026 256.019 43.9815C227.897 15.8604 189.769 0.0430135 150 0V0ZM150 275C125.277 275 101.11 267.669 80.5538 253.934C59.9976 240.199 43.9761 220.676 34.5151 197.835C25.0542 174.995 22.5788 149.861 27.4019 125.614C32.2251 101.366 44.1302 79.0932 61.6117 61.6117C79.0933 44.1301 101.366 32.225 125.614 27.4018C149.861 22.5787 174.995 25.0541 197.836 34.5151C220.676 43.976 240.199 59.9976 253.934 80.5537C267.669 101.11 275 125.277 275 150C274.964 183.141 261.782 214.914 238.348 238.348C214.914 261.782 183.141 274.964 150 275V275Z" fill="#374957"/>
<path d="M158.962 63.2835C151.754 61.9701 144.345 62.257 137.26 64.124C130.175 65.9909 123.586 69.3922 117.961 74.0873C112.336 78.7823 107.811 84.6562 104.708 91.2934C101.604 97.9306 99.9967 105.169 100 112.496C100 115.811 101.317 118.991 103.661 121.335C106.005 123.679 109.185 124.996 112.5 124.996C115.815 124.996 118.995 123.679 121.339 121.335C123.683 118.991 125 115.811 125 112.496C124.997 108.818 125.805 105.185 127.367 101.855C128.93 98.5259 131.207 95.5821 134.038 93.2338C136.868 90.8856 140.182 89.1908 143.743 88.2703C147.303 87.3498 151.023 87.2262 154.637 87.9085C159.575 88.867 164.116 91.2758 167.678 94.8271C171.24 98.3784 173.663 102.911 174.637 107.846C175.621 113.026 174.942 118.384 172.697 123.155C170.452 127.926 166.756 131.865 162.137 134.408C154.49 138.839 148.17 145.24 143.836 152.943C139.503 160.647 137.315 169.372 137.5 178.208V187.496C137.5 190.811 138.817 193.991 141.161 196.335C143.505 198.679 146.685 199.996 150 199.996C153.315 199.996 156.495 198.679 158.839 196.335C161.183 193.991 162.5 190.811 162.5 187.496V178.208C162.343 173.859 163.335 169.544 165.376 165.7C167.417 161.855 170.434 158.616 174.125 156.308C183.181 151.334 190.474 143.677 195.001 134.389C199.528 125.1 201.065 114.638 199.403 104.44C197.741 94.2421 192.96 84.8096 185.719 77.4396C178.477 70.0697 169.13 65.1243 158.962 63.2835V63.2835Z" fill="#374957"/>
<path d="M162.5 224.996C162.5 218.093 156.904 212.496 150 212.496C143.096 212.496 137.5 218.093 137.5 224.996C137.5 231.9 143.096 237.496 150 237.496C156.904 237.496 162.5 231.9 162.5 224.996Z" fill="#374957"/>
</g>
<defs>
<clipPath id="clip0_1102_56">
<rect width="300" height="300" fill="white"/>
</clipPath>
</defs>
</svg>
