<svg width="300" height="300" viewBox="0 0 300 300" fill="none" xmlns="http://www.w3.org/2000/svg">
<g clip-path="url(#clip0_1128_171)">
<path d="M274.527 160.938C272.117 189.435 260.036 216.253 240.288 236.94C220.541 257.628 194.314 270.942 165.959 274.674C137.604 278.406 108.825 272.332 84.3972 257.459C59.9692 242.586 41.3604 219.808 31.6581 192.904C21.9557 166.001 21.7431 136.589 31.0554 109.548C40.3677 82.5069 58.6452 59.4624 82.8555 44.2376C107.066 29.0129 135.754 22.523 164.16 25.8448C192.566 29.1665 218.982 42.1002 239.027 62.5H200.002C196.687 62.5 193.507 63.817 191.163 66.1612C188.819 68.5054 187.502 71.6848 187.502 75C187.502 78.3152 188.819 81.4946 191.163 83.8388C193.507 86.183 196.687 87.5 200.002 87.5H251.789C257.945 87.4967 263.847 85.05 268.199 80.6976C272.552 76.3451 274.999 70.4428 275.002 64.2875V12.5C275.002 9.18479 273.685 6.00537 271.341 3.66117C268.997 1.31696 265.817 0 262.502 0V0C259.187 0 256.007 1.31696 253.663 3.66117C251.319 6.00537 250.002 9.18479 250.002 12.5V38.475C224.86 16.0091 192.875 2.68105 159.22 0.646391C125.565 -1.38826 92.2075 7.98946 64.5425 27.2629C36.8776 46.5363 16.523 74.5784 6.77076 106.854C-2.98149 139.129 -1.56113 173.751 10.8021 205.119C23.1653 236.487 45.7485 262.768 74.8992 279.711C104.05 296.653 138.064 303.267 171.439 298.482C204.814 293.698 235.6 277.794 258.817 253.345C282.034 228.895 296.324 197.328 299.377 163.75C299.538 162.009 299.335 160.254 298.781 158.596C298.227 156.938 297.333 155.414 296.157 154.12C294.981 152.827 293.549 151.792 291.951 151.083C290.353 150.373 288.625 150.005 286.877 150C283.827 149.963 280.874 151.063 278.591 153.085C276.308 155.107 274.859 157.906 274.527 160.938V160.938Z" fill="white"/>
</g>
<defs>
<clipPath id="clip0_1128_171">
<rect width="300" height="300" fill="white"/>
</clipPath>
</defs>
</svg>
