<!--?xml version="1.0" encoding="utf-8"?-->
<!-- Svg Vector Icons : http://www.onlinewebfonts.com/icon -->

<svg version="1.1" xmlns="http://www.w3.org/2000/svg" xmlns:xlink="http://www.w3.org/1999/xlink" x="0px" y="0px" viewBox="0 0 256 256" enable-background="new 0 0 256 256" xml:space="preserve">
<metadata> Svg Vector Icons : http://www.onlinewebfonts.com/icon </metadata>
<g><g><g><path fill="#ffffff" data-title="Layer 0" xs="0" d="M61.6,10.6c-0.7,0.4-1.4,1-1.6,1.5c-0.2,0.5-0.5,31.1-0.6,68.2l-0.2,67.4l-8.1,0.1c-8.7,0.1-9.8,0.4-10.9,2.5c-1.1,2.2-0.8,4,0.9,5.7l1.6,1.6H51h8.3l-0.1,9.8l-0.1,9.8l-8.1,0.1c-8.7,0.1-9.8,0.4-10.9,2.5c-1.1,2.2-0.8,4,0.9,5.7l1.6,1.6H51h8.3v27.7c0,30.4,0,29.8,2.7,30.9c2,0.8,4.4,0.2,5.8-1.4l1.2-1.4v-27.9V187h42.7h42.7l1.6-1.6c2.3-2.3,2.1-5.3-0.5-7.3c-0.9-0.7-3.9-0.8-43.7-0.8H69.1v-9.9v-9.9l41.7-0.2c40.5-0.1,41.7-0.2,46.2-1.2c30.7-6.6,53.1-29.4,58.7-59.8c1.2-6.4,1.2-19,0-25.4c-3.2-17.2-12.1-32.8-25-43.5c-9.9-8.3-20.5-13.4-33.7-16.3c-4.5-1-5.4-1-49.3-1.2C69.1,9.9,62.6,10,61.6,10.6z M154.4,20.7c26.5,5.3,46.9,25.9,51.5,51.9c1.1,5.9,1.1,16.3,0,22.1c-4.1,23-20.7,42.2-42.7,49.5c-9.9,3.3-8.6,3.2-53.6,3.4l-40.5,0.2V83.7V19.5l40.7,0.2C145.8,19.9,150.9,20,154.4,20.7z"/></g></g></g>
</svg>