<!--?xml version="1.0" encoding="utf-8"?-->
<!-- Svg Vector Icons : http://www.onlinewebfonts.com/icon -->

<svg version="1.1" xmlns="http://www.w3.org/2000/svg" xmlns:xlink="http://www.w3.org/1999/xlink" x="0px" y="0px" viewBox="0 0 256 256" enable-background="new 0 0 256 256" xml:space="preserve">
<metadata> Svg Vector Icons : http://www.onlinewebfonts.com/icon </metadata>
<g><g><path fill="#ffffff" data-title="Layer 0" xs="0" d="M195.5,83.3c0-11.2-3.6-20.2-10.9-27.2c-7.3-6.9-16.8-10.4-28.7-10.4h-53.7v75.1H156c11.8,0,21.4-3.5,28.7-10.4C191.9,103.5,195.5,94.4,195.5,83.3z M235.3,83.3c0,21.6-7.1,39.2-21.2,52.8c-14.2,13.6-32.4,20.4-54.7,20.4h-57v19.8H187c1.6,0,2.8,0.5,3.9,1.5c1,1,1.5,2.3,1.5,3.9v21.5c0,1.6-0.5,2.8-1.5,3.9c-1,1-2.3,1.5-3.9,1.5h-84.6v32.2c0,1.6-0.5,2.8-1.6,3.9c-1.1,1-2.3,1.5-3.8,1.5H69c-1.6,0-2.8-0.5-3.9-1.5c-1-1-1.5-2.3-1.5-3.9v-32.2H26.1c-1.6,0-2.8-0.5-3.9-1.5c-1-1-1.5-2.3-1.5-3.9v-21.5c0-1.6,0.5-2.8,1.5-3.9c1-1,2.3-1.5,3.9-1.5h37.5v-19.8H26.1c-1.6,0-2.8-0.5-3.9-1.5c-1-1-1.5-2.3-1.5-3.9v-25c0-1.4,0.5-2.7,1.5-3.8c1-1.1,2.3-1.6,3.9-1.6h37.5V15.4c0-1.6,0.5-2.8,1.5-3.9S67.4,10,69,10h90.4c22.3,0,40.6,6.8,54.7,20.4C228.2,44.1,235.3,61.7,235.3,83.3L235.3,83.3z"/></g></g>
</svg>