<svg width="300" height="300" viewBox="0 0 300 300" fill="none" xmlns="http://www.w3.org/2000/svg">
<path d="M68.75 212.502C79.1053 212.502 87.5 204.107 87.5 193.752C87.5 183.397 79.1053 175.002 68.75 175.002C58.3947 175.002 50 183.397 50 193.752C50 204.107 58.3947 212.502 68.75 212.502Z" fill="white"/>
<path d="M237.5 37.5H62.5C45.9301 37.5198 30.0445 44.111 18.3277 55.8277C6.61102 67.5445 0.0198482 83.4301 0 100L0 200C0.0198482 216.57 6.61102 232.456 18.3277 244.172C30.0445 255.889 45.9301 262.48 62.5 262.5H237.5C254.07 262.48 269.956 255.889 281.672 244.172C293.389 232.456 299.98 216.57 300 200V100C299.98 83.4301 293.389 67.5445 281.672 55.8277C269.956 44.111 254.07 37.5198 237.5 37.5V37.5ZM62.5 62.5H237.5C247.446 62.5 256.984 66.4509 264.017 73.4835C271.049 80.5161 275 90.0544 275 100H25C25 90.0544 28.9509 80.5161 35.9835 73.4835C43.0161 66.4509 52.5544 62.5 62.5 62.5V62.5ZM237.5 237.5H62.5C52.5544 237.5 43.0161 233.549 35.9835 226.517C28.9509 219.484 25 209.946 25 200V125H275V200C275 209.946 271.049 219.484 264.017 226.517C256.984 233.549 247.446 237.5 237.5 237.5Z" fill="white"/>
</svg>
