<svg width="300" height="300" viewBox="0 0 300 300" fill="none" xmlns="http://www.w3.org/2000/svg">
<g clip-path="url(#clip0_1102_72)">
<path d="M237.5 24.9928H205.763C197.119 15.1404 186.009 7.76707 173.572 3.63041C161.136 -0.506243 147.823 -1.25699 135 1.45533C119.383 4.63995 105.266 12.9187 94.8625 24.9928H62.5C45.9301 25.0127 30.0445 31.6038 18.3277 43.3206C6.61102 55.0373 0.0198482 70.9229 0 87.4928L0 237.493C0.0198482 254.063 6.61102 269.948 18.3277 281.665C30.0445 293.382 45.9301 299.973 62.5 299.993H237.5C254.07 299.973 269.956 293.382 281.672 281.665C293.389 269.948 299.98 254.063 300 237.493V87.4928C299.98 70.9229 293.389 55.0373 281.672 43.3206C269.956 31.6038 254.07 25.0127 237.5 24.9928V24.9928ZM150 24.9928C163.261 24.9928 175.979 30.2607 185.355 39.6375C194.732 49.0143 200 61.732 200 74.9928C200 78.308 198.683 81.4874 196.339 83.8317C193.995 86.1759 190.815 87.4928 187.5 87.4928H160.85L172.9 69.4303C174.74 66.6721 175.409 63.2959 174.759 60.0445C174.11 56.7931 172.196 53.9328 169.438 52.0928C166.679 50.2529 163.303 49.584 160.052 50.2334C156.8 50.8827 153.94 52.7971 152.1 55.5553L130.813 87.4928H112.5C109.185 87.4928 106.005 86.1759 103.661 83.8317C101.317 81.4874 100 78.308 100 74.9928C100 61.732 105.268 49.0143 114.645 39.6375C124.021 30.2607 136.739 24.9928 150 24.9928V24.9928ZM275 237.493C275 247.438 271.049 256.977 264.017 264.009C256.984 271.042 247.446 274.993 237.5 274.993H62.5C52.5544 274.993 43.0161 271.042 35.9835 264.009C28.9509 256.977 25 247.438 25 237.493V87.4928C25 77.5472 28.9509 68.0089 35.9835 60.9763C43.0161 53.9437 52.5544 49.9928 62.5 49.9928H79.9125C76.6738 58.8651 75.0112 68.2354 75 77.6803C75.0099 86.9101 78.6808 95.7591 85.2073 102.286C91.7338 108.812 100.583 112.483 109.812 112.493H190.188C199.15 112.575 207.793 109.169 214.29 102.994C220.786 96.8196 224.627 88.3604 225 79.4053C225.126 69.4358 223.674 59.5091 220.7 49.9928H237.5C247.446 49.9928 256.984 53.9437 264.017 60.9763C271.049 68.0089 275 77.5472 275 87.4928V237.493Z" fill="white"/>
</g>
<defs>
<clipPath id="clip0_1102_72">
<rect width="300" height="300" fill="white"/>
</clipPath>
</defs>
</svg>
