<!--?xml version="1.0" encoding="utf-8"?-->
<!-- Svg Vector Icons : http://www.onlinewebfonts.com/icon -->

<svg version="1.1" xmlns="http://www.w3.org/2000/svg" xmlns:xlink="http://www.w3.org/1999/xlink" x="0px" y="0px" viewBox="0 0 256 256" enable-background="new 0 0 256 256" xml:space="preserve">
<metadata> Svg Vector Icons : http://www.onlinewebfonts.com/icon </metadata>
<g><g><path fill="#ffffff" data-title="Layer 0" xs="0" d="M200.5,241.9H55.5c-24,0-43.5-19.5-43.5-43.5V57.6c0-24,19.5-43.5,43.5-43.5h144.9c24,0,43.5,19.5,43.5,43.5v140.8C244,222.4,224.4,241.9,200.5,241.9z M55.5,18.3c-21.7,0-39.3,17.7-39.3,39.3v140.8c0,21.7,17.7,39.3,39.3,39.3h144.9c21.7,0,39.3-17.7,39.3-39.3V57.6c0-21.7-17.7-39.3-39.3-39.3H55.5z"/><path fill="#ffffff" data-title="Layer 1" xs="1" d="M200.5,243.9H55.5c-25.1,0-45.5-20.4-45.5-45.5V57.6c0-25.1,20.4-45.5,45.5-45.5h144.9c25.1,0,45.5,20.4,45.5,45.5v140.8C246,223.5,225.6,243.9,200.5,243.9z M55.5,20.3c-20.5,0-37.3,16.7-37.3,37.3v140.8c0,20.5,16.7,37.3,37.3,37.3h144.9c20.5,0,37.3-16.7,37.3-37.3V57.6c0-20.5-16.7-37.3-37.3-37.3H55.5z M55.5,16.2c-22.8,0-41.4,18.6-41.4,41.4v140.8V57.6C14.1,34.8,32.7,16.2,55.5,16.2h144.9c22.8,0,41.4,18.6,41.4,41.4c0-22.8-18.6-41.4-41.4-41.4H55.5z"/><path fill="#ffffff" data-title="Layer 2" xs="2" d="M87.3,135.2L40.2,83.9l1.5-1.4c23.8-22.7,55.1-35.2,88.2-35.2c31.1,0,61.1,11.3,84.4,31.8l1.6,1.4l-48.2,53.1l-1.5-1.4c-10.3-9.7-23.7-15-37.9-15c-14.9,0-28.9,5.8-39.3,16.4L87.3,135.2z M46,84.1l41.4,45.1c11-10.4,25.4-16.1,40.7-16.1c14.5,0,28.3,5.2,39.2,14.7l42.6-46.9c-22.3-19-50.7-29.4-80.1-29.4C98.6,51.4,68.9,63,46,84.1z"/><path fill="#ffffff" data-title="Layer 3" xs="3" d="M87.3,138.1L37.3,83.8l2.9-2.8c24.2-23.1,56-35.8,89.6-35.8c31.6,0,62.1,11.5,85.8,32.3l3.2,2.8l-51.1,56.3l-3.1-2.9c-9.9-9.3-22.9-14.4-36.5-14.4c-14.4,0-27.8,5.6-37.9,15.8L87.3,138.1z M87.4,132.1L87.4,132.1c1.2-1.2,2.5-2.3,3.8-3.4c-0.8,0.6-1.5,1.3-2.2,2L87.4,132.1z M49,84.2l38.6,42c11.2-9.9,25.5-15.2,40.6-15.2c14.2,0,28,4.9,39,13.9L207,81c-21.7-17.8-49-27.6-77.1-27.6C99.8,53.5,71.2,64.4,49,84.2z M212.9,80.7l-10.4,11.5L212.9,80.7z M129.7,49.3c-31.4,0-61.2,11.6-84.3,32.5C68.5,60.9,98.3,49.4,129.7,49.3z M130,49.3c29.8,0,58.6,10.6,81.3,29.9l0.4,0.4C189,60.1,160,49.4,130,49.3z"/><path fill="#ffffff" data-title="Layer 4" xs="4" d="M157.3,69.1l3.4,0.6c0.9,0.2,1.5,1,1.3,1.8l-11.6,29.8c-0.2,0.8-1.1,1.4-2,1.2l-3.4-0.6c-0.9-0.2-1.5-1-1.3-1.8l11.6-29.8C155.4,69.5,156.4,68.9,157.3,69.1z"/><path fill="#ffffff" data-title="Layer 5" xs="5" d="M148.7,104.5l-0.7,0l-3.4-0.6c-1-0.2-2-0.8-2.5-1.6c-0.5-0.8-0.7-1.8-0.5-2.7l11.7-30c0.3-1.4,1.9-2.6,3.7-2.6l0.7,0l3.4,0.6c1,0.2,2,0.8,2.5,1.6c0.5,0.8,0.7,1.8,0.5,2.7l-11.7,30C152.1,103.3,150.5,104.5,148.7,104.5z M145.9,100l2.7,0.3l11.2-28.9l-2.7-0.3L145.9,100z"/></g></g>
</svg>