<svg width="300" height="300" viewBox="0 0 300 300" fill="none" xmlns="http://www.w3.org/2000/svg">
<g clip-path="url(#clip0_1113_171)">
<path d="M12.5 59.3792H46.7C49.383 69.2509 55.2397 77.9654 63.3666 84.1784C71.4935 90.3913 81.439 93.7574 91.6687 93.7574C101.898 93.7574 111.844 90.3913 119.971 84.1784C128.098 77.9654 133.955 69.2509 136.637 59.3792H287.5C290.815 59.3792 293.995 58.0623 296.339 55.718C298.683 53.3738 300 50.1944 300 46.8792C300 43.564 298.683 40.3846 296.339 38.0404C293.995 35.6962 290.815 34.3792 287.5 34.3792H136.637C133.955 24.5076 128.098 15.793 119.971 9.58008C111.844 3.36712 101.898 0.000976563 91.6687 0.000976562C81.439 0.000976563 71.4935 3.36712 63.3666 9.58008C55.2397 15.793 49.383 24.5076 46.7 34.3792H12.5C9.18479 34.3792 6.00537 35.6962 3.66117 38.0404C1.31696 40.3846 0 43.564 0 46.8792C0 50.1944 1.31696 53.3738 3.66117 55.718C6.00537 58.0623 9.18479 59.3792 12.5 59.3792V59.3792ZM91.6625 25.0042C95.989 25.0042 100.218 26.2872 103.816 28.6908C107.413 31.0945 110.217 34.5109 111.872 38.508C113.528 42.5051 113.961 46.9035 113.117 51.1468C112.273 55.3902 110.19 59.2879 107.13 62.3472C104.071 65.4064 100.173 67.4898 95.9301 68.3339C91.6868 69.1779 87.2884 68.7447 83.2913 67.0891C79.2942 65.4334 75.8778 62.6296 73.4741 59.0323C71.0704 55.435 69.7875 51.2057 69.7875 46.8792C69.7941 41.0796 72.1009 35.5195 76.2019 31.4186C80.3028 27.3176 85.8629 25.0108 91.6625 25.0042V25.0042Z" fill="white"/>
<path d="M287.5 137.489H253.3C250.621 127.615 244.767 118.897 236.641 112.682C228.515 106.466 218.568 103.099 208.337 103.099C198.107 103.099 188.16 106.466 180.034 112.682C171.908 118.897 166.054 127.615 163.375 137.489H12.5C9.18479 137.489 6.00537 138.806 3.66117 141.15C1.31696 143.494 0 146.674 0 149.989C0 153.304 1.31696 156.484 3.66117 158.828C6.00537 161.172 9.18479 162.489 12.5 162.489H163.375C166.054 172.363 171.908 181.081 180.034 187.296C188.16 193.512 198.107 196.879 208.337 196.879C218.568 196.879 228.515 193.512 236.641 187.296C244.767 181.081 250.621 172.363 253.3 162.489H287.5C290.815 162.489 293.995 161.172 296.339 158.828C298.683 156.484 300 153.304 300 149.989C300 146.674 298.683 143.494 296.339 141.15C293.995 138.806 290.815 137.489 287.5 137.489ZM208.337 171.864C204.011 171.864 199.782 170.581 196.184 168.177C192.587 165.774 189.783 162.357 188.128 158.36C186.472 154.363 186.039 149.965 186.883 145.721C187.727 141.478 189.81 137.58 192.87 134.521C195.929 131.462 199.827 129.378 204.07 128.534C208.313 127.69 212.712 128.123 216.709 129.779C220.706 131.435 224.122 134.239 226.526 137.836C228.93 141.433 230.212 145.663 230.212 149.989C230.206 155.789 227.899 161.349 223.798 165.45C219.697 169.551 214.137 171.857 208.337 171.864V171.864Z" fill="white"/>
<path d="M287.5 240.629H136.637C133.955 230.757 128.098 222.043 119.971 215.83C111.844 209.617 101.898 206.251 91.6687 206.251C81.439 206.251 71.4935 209.617 63.3666 215.83C55.2397 222.043 49.383 230.757 46.7 240.629H12.5C9.18479 240.629 6.00537 241.946 3.66117 244.29C1.31696 246.634 0 249.814 0 253.129C0 256.444 1.31696 259.624 3.66117 261.968C6.00537 264.312 9.18479 265.629 12.5 265.629H46.7C49.383 275.501 55.2397 284.215 63.3666 290.428C71.4935 296.641 81.439 300.007 91.6687 300.007C101.898 300.007 111.844 296.641 119.971 290.428C128.098 284.215 133.955 275.501 136.637 265.629H287.5C290.815 265.629 293.995 264.312 296.339 261.968C298.683 259.624 300 256.444 300 253.129C300 249.814 298.683 246.634 296.339 244.29C293.995 241.946 290.815 240.629 287.5 240.629ZM91.6625 275.004C87.336 275.004 83.1067 273.721 79.5094 271.317C75.9121 268.914 73.1083 265.497 71.4526 261.5C69.797 257.503 69.3638 253.105 70.2078 248.861C71.0519 244.618 73.1353 240.72 76.1945 237.661C79.2538 234.602 83.1516 232.519 87.3949 231.674C91.6382 230.83 96.0366 231.264 100.034 232.919C104.031 234.575 107.447 237.379 109.851 240.976C112.255 244.573 113.538 248.803 113.538 253.129C113.528 258.928 111.22 264.486 107.12 268.586C103.019 272.686 97.4611 274.994 91.6625 275.004V275.004Z" fill="white"/>
</g>
<defs>
<clipPath id="clip0_1113_171">
<rect width="300" height="300" fill="white"/>
</clipPath>
</defs>
</svg>
