<svg width="300" height="300" viewBox="0 0 300 300" fill="none" xmlns="http://www.w3.org/2000/svg">
<g clip-path="url(#clip0_1131_114)">
<path d="M212.5 0C209.185 0 206.005 1.31696 203.661 3.66117C201.317 6.00537 200 9.18479 200 12.5C200 49.3625 167.713 62.5 137.5 62.5H50C36.7392 62.5 24.0215 67.7678 14.6447 77.1447C5.26784 86.5215 0 99.2392 0 112.5L0 137.5C0.0273021 144.984 1.74327 152.366 5.02003 159.095C8.29679 165.823 13.0499 171.726 18.925 176.363L63.575 276.012C66.7505 283.151 71.9272 289.216 78.4784 293.473C85.0296 297.731 92.6745 299.998 100.488 300C106.704 299.996 112.821 298.437 118.281 295.466C123.741 292.495 128.371 288.205 131.751 282.987C135.13 277.769 137.15 271.789 137.628 265.591C138.106 259.393 137.027 253.174 134.488 247.5L106.988 187.5H137.5C167.713 187.5 200 200.638 200 237.5C200 240.815 201.317 243.995 203.661 246.339C206.005 248.683 209.185 250 212.5 250C215.815 250 218.995 248.683 221.339 246.339C223.683 243.995 225 240.815 225 237.5V12.5C225 9.18479 223.683 6.00537 221.339 3.66117C218.995 1.31696 215.815 0 212.5 0V0ZM111.713 257.737C112.54 259.607 112.889 261.654 112.726 263.693C112.562 265.731 111.893 267.697 110.778 269.411C109.664 271.125 108.139 272.534 106.342 273.51C104.545 274.486 102.532 274.998 100.488 275C97.5049 274.998 94.5872 274.13 92.0886 272.501C89.59 270.872 87.6181 268.553 86.4125 265.825L51.3125 187.5H79.4875L111.713 257.737ZM200 182.5C182.141 168.74 160.03 161.664 137.5 162.5H50C43.3696 162.5 37.0107 159.866 32.3223 155.178C27.6339 150.489 25 144.13 25 137.5V112.5C25 105.87 27.6339 99.5107 32.3223 94.8223C37.0107 90.1339 43.3696 87.5 50 87.5H137.5C160.022 88.3537 182.133 81.3004 200 67.5625V182.5ZM298.75 193.15C298.017 194.62 297.001 195.93 295.761 197.007C294.521 198.084 293.081 198.906 291.523 199.426C289.965 199.946 288.32 200.154 286.682 200.038C285.043 199.922 283.444 199.484 281.975 198.75L256.975 186.25C254.008 184.768 251.751 182.168 250.701 179.022C249.651 175.876 249.893 172.442 251.375 169.475C252.857 166.508 255.457 164.251 258.603 163.201C261.749 162.151 265.183 162.393 268.15 163.875L293.15 176.375C296.102 177.856 298.348 180.445 299.397 183.576C300.446 186.708 300.214 190.127 298.75 193.087V193.15ZM251.375 80.65C250.641 79.181 250.203 77.5816 250.087 75.9433C249.971 74.305 250.179 72.6599 250.699 71.102C251.219 69.5441 252.041 68.104 253.118 66.864C254.195 65.6239 255.505 64.6082 256.975 63.875L281.975 51.375C284.942 49.8931 288.376 49.6506 291.522 50.7008C294.668 51.751 297.268 54.0079 298.75 56.975C300.232 59.9421 300.474 63.3764 299.424 66.5223C298.374 69.6682 296.117 72.2681 293.15 73.75L268.15 86.25C266.681 86.9845 265.082 87.4222 263.443 87.5383C261.805 87.6543 260.16 87.4463 258.602 86.9263C257.044 86.4062 255.604 85.5842 254.364 84.5073C253.124 83.4304 252.108 82.1196 251.375 80.65V80.65ZM250 125C250 121.685 251.317 118.505 253.661 116.161C256.005 113.817 259.185 112.5 262.5 112.5H287.5C290.815 112.5 293.995 113.817 296.339 116.161C298.683 118.505 300 121.685 300 125C300 128.315 298.683 131.495 296.339 133.839C293.995 136.183 290.815 137.5 287.5 137.5H262.5C259.185 137.5 256.005 136.183 253.661 133.839C251.317 131.495 250 128.315 250 125Z" fill="white"/>
</g>
<defs>
<clipPath id="clip0_1131_114">
<rect width="300" height="300" fill="white"/>
</clipPath>
</defs>
</svg>
