<svg width="300" height="300" viewBox="0 0 300 300" fill="none" xmlns="http://www.w3.org/2000/svg">
<g clip-path="url(#clip0_1102_131)">
<path d="M0 287.491V199.991C0.0330857 170.165 11.8964 141.569 32.987 120.478C54.0777 99.3878 82.6733 87.5246 112.5 87.4915H172.875V67.6665C172.876 62.7228 174.343 57.8903 177.09 53.7801C179.837 49.6698 183.741 46.4663 188.309 44.5746C192.876 42.6828 197.902 42.1878 202.751 43.152C207.6 44.1161 212.054 46.4963 215.55 49.9915L289.05 123.479C296.08 130.511 300.03 140.048 300.03 149.991C300.03 159.935 296.08 169.472 289.05 176.504L215.55 249.991C212.054 253.486 207.6 255.867 202.751 256.831C197.902 257.795 192.876 257.3 188.309 255.408C183.741 253.516 179.837 250.313 177.09 246.203C174.343 242.092 172.876 237.26 172.875 232.316V212.491H100C80.1149 212.511 61.0499 220.419 46.9889 234.48C32.928 248.541 25.0199 267.606 25 287.491C25 290.806 23.683 293.986 21.3388 296.33C18.9946 298.674 15.8152 299.991 12.5 299.991C9.18479 299.991 6.00537 298.674 3.66117 296.33C1.31696 293.986 0 290.806 0 287.491ZM197.875 99.9915C197.875 103.307 196.558 106.486 194.214 108.83C191.87 111.174 188.69 112.491 185.375 112.491H112.5C89.3017 112.518 67.0611 121.745 50.6574 138.149C34.2537 154.552 25.0265 176.793 25 199.991V221.416C34.3696 210.753 45.9061 202.211 58.8394 196.361C71.7727 190.511 85.8051 187.487 100 187.491H185.375C188.69 187.491 191.87 188.808 194.214 191.153C196.558 193.497 197.875 196.676 197.875 199.991V232.316L271.363 158.829C273.706 156.485 275.022 153.306 275.022 149.991C275.022 146.677 273.706 143.498 271.363 141.154L197.875 67.6665V99.9915Z" fill="white"/>
</g>
<defs>
<clipPath id="clip0_1102_131">
<rect width="300" height="300" fill="white"/>
</clipPath>
</defs>
</svg>
