<svg width="300" height="300" viewBox="0 0 300 300" fill="none" xmlns="http://www.w3.org/2000/svg">
<g clip-path="url(#clip0_1139_154)">
<path d="M287.5 137.508H262.5V112.508C262.5 109.193 261.183 106.013 258.839 103.669C256.495 101.325 253.315 100.008 250 100.008C246.685 100.008 243.505 101.325 241.161 103.669C238.817 106.013 237.5 109.193 237.5 112.508V137.508H212.5C209.185 137.508 206.005 138.825 203.661 141.169C201.317 143.513 200 146.693 200 150.008C200 153.323 201.317 156.502 203.661 158.847C206.005 161.191 209.185 162.508 212.5 162.508H237.5V187.508C237.5 190.823 238.817 194.002 241.161 196.346C243.505 198.691 246.685 200.008 250 200.008C253.315 200.008 256.495 198.691 258.839 196.346C261.183 194.002 262.5 190.823 262.5 187.508V162.508H287.5C290.815 162.508 293.994 161.191 296.339 158.847C298.683 156.502 300 153.323 300 150.008C300 146.693 298.683 143.513 296.339 141.169C293.994 138.825 290.815 137.508 287.5 137.508Z" fill="white"/>
<path d="M112.5 149.999C127.334 149.999 141.834 145.6 154.168 137.359C166.501 129.118 176.114 117.405 181.791 103.7C187.468 89.9959 188.953 74.9159 186.059 60.3673C183.165 45.8187 176.022 32.455 165.533 21.966C155.044 11.4771 141.68 4.33405 127.132 1.44016C112.583 -1.45373 97.5032 0.0315199 83.7987 5.70809C70.0943 11.3847 58.3809 20.9976 50.1398 33.3313C41.8987 45.665 37.5 60.1655 37.5 74.9991C37.5199 94.8842 45.428 113.949 59.4889 128.01C73.5499 142.071 92.6149 149.979 112.5 149.999ZM112.5 24.9991C122.389 24.9991 132.056 27.9315 140.279 33.4256C148.501 38.9196 154.91 46.7286 158.694 55.8649C162.478 65.0012 163.469 75.0545 161.539 84.7536C159.61 94.4526 154.848 103.362 147.855 110.354C140.863 117.347 131.954 122.109 122.255 124.038C112.555 125.968 102.502 124.977 93.3658 121.193C84.2295 117.409 76.4206 111 70.9265 102.778C65.4324 94.5551 62.5 84.8881 62.5 74.9991C62.5 61.7382 67.7678 49.0205 77.1447 39.6437C86.5215 30.2669 99.2392 24.9991 112.5 24.9991V24.9991Z" fill="white"/>
<path d="M112.5 175.008C82.6733 175.041 54.0777 186.904 32.987 207.995C11.8964 229.086 0.0330857 257.681 0 287.508C0 290.823 1.31696 294.002 3.66117 296.347C6.00537 298.691 9.18479 300.008 12.5 300.008C15.8152 300.008 18.9946 298.691 21.3388 296.347C23.683 294.002 25 290.823 25 287.508C25 264.301 34.2187 242.045 50.6282 225.636C67.0376 209.227 89.2936 200.008 112.5 200.008C135.706 200.008 157.962 209.227 174.372 225.636C190.781 242.045 200 264.301 200 287.508C200 290.823 201.317 294.002 203.661 296.347C206.005 298.691 209.185 300.008 212.5 300.008C215.815 300.008 218.995 298.691 221.339 296.347C223.683 294.002 225 290.823 225 287.508C224.967 257.681 213.104 229.086 192.013 207.995C170.922 186.904 142.327 175.041 112.5 175.008V175.008Z" fill="white"/>
</g>
<defs>
<clipPath id="clip0_1139_154">
<rect width="300" height="300" fill="white"/>
</clipPath>
</defs>
</svg>
