<svg width="300" height="300" viewBox="0 0 300 300" fill="none" xmlns="http://www.w3.org/2000/svg">
<g clip-path="url(#clip0_1102_158)">
<path d="M286.776 85.4614L259.501 58.1739L271.339 46.3364C272.533 45.1833 273.485 43.804 274.14 42.279C274.795 40.7539 275.14 39.1137 275.154 37.4539C275.169 35.7942 274.853 34.1482 274.224 32.612C273.596 31.0758 272.667 29.6801 271.494 28.5065C270.32 27.3328 268.924 26.4047 267.388 25.7761C265.852 25.1476 264.206 24.8314 262.546 24.8458C260.887 24.8602 259.246 25.205 257.721 25.8601C256.196 26.5153 254.817 27.4675 253.664 28.6614L241.826 40.4989L214.539 13.2239C205.938 5.02794 194.513 0.456055 182.633 0.456055C170.752 0.456055 159.327 5.02794 150.726 13.2239C146.533 17.4135 143.207 22.3883 140.938 27.864C138.668 33.3397 137.5 39.209 137.5 45.1364C137.5 51.0638 138.668 56.9331 140.938 62.4088C143.207 67.8845 146.533 72.8593 150.726 77.0489L178.001 104.324L104.326 177.999L77.0388 150.724C68.438 142.528 57.0131 137.956 45.1325 137.956C33.252 137.956 21.8271 142.528 13.2263 150.724C9.03327 154.913 5.70698 159.888 3.43754 165.364C1.1681 170.84 0 176.709 0 182.636C0 188.564 1.1681 194.433 3.43754 199.909C5.70698 205.385 9.03327 210.359 13.2263 214.549L40.5013 241.824L28.6638 253.661C27.4699 254.814 26.5176 256.194 25.8625 257.719C25.2074 259.244 24.8626 260.884 24.8482 262.544C24.8337 264.204 25.15 265.85 25.7785 267.386C26.407 268.922 27.3352 270.318 28.5089 271.491C29.6825 272.665 31.0782 273.593 32.6144 274.222C34.1506 274.85 35.7966 275.166 37.4563 275.152C39.1161 275.138 40.7563 274.793 42.2814 274.138C43.8064 273.483 45.1857 272.53 46.3388 271.336L58.1763 259.499L85.4638 286.774C89.6531 290.965 94.6272 294.29 100.102 296.558C105.576 298.826 111.444 299.994 117.37 299.994C123.296 299.994 129.164 298.826 134.638 296.558C140.113 294.29 145.087 290.965 149.276 286.774C153.469 282.585 156.795 277.612 159.064 272.137C161.334 266.662 162.502 260.794 162.502 254.868C162.502 248.941 161.334 243.073 159.064 237.598C156.795 232.124 153.469 227.15 149.276 222.961L122.001 195.686L195.751 121.999L223.026 149.274C227.216 153.465 232.19 156.79 237.664 159.058C243.139 161.326 249.007 162.494 254.933 162.494C260.858 162.494 266.726 161.326 272.201 159.058C277.675 156.79 282.649 153.465 286.839 149.274C291.031 145.085 294.357 140.112 296.627 134.637C298.896 129.162 300.064 123.294 300.064 117.368C300.064 111.441 298.896 105.573 296.627 100.098C294.357 94.6237 291.031 89.6499 286.839 85.4614H286.776ZM137.501 254.874C137.507 257.517 136.988 260.135 135.975 262.577C134.963 265.019 133.476 267.235 131.601 269.099C127.77 272.764 122.672 274.81 117.37 274.81C112.068 274.81 106.97 272.764 103.139 269.099L30.9013 196.861C27.1269 193.087 25.0065 187.968 25.0065 182.63C25.0065 177.292 27.1269 172.173 30.9013 168.399C34.6757 164.625 39.7948 162.504 45.1325 162.504C50.4703 162.504 55.5894 164.625 59.3638 168.399L131.601 240.636C133.477 242.501 134.965 244.72 135.978 247.164C136.991 249.608 137.508 252.228 137.501 254.874ZM269.101 131.599C265.27 135.264 260.172 137.31 254.87 137.31C249.568 137.31 244.47 135.264 240.639 131.599L168.401 59.3614C166.532 57.4925 165.05 55.2739 164.039 52.8321C163.027 50.3903 162.507 47.7732 162.507 45.1302C162.507 39.7924 164.627 34.6733 168.401 30.8989C172.176 27.1246 177.295 25.0041 182.633 25.0041C187.97 25.0041 193.089 27.1246 196.864 30.8989L269.101 103.136C270.972 105.004 272.456 107.223 273.468 109.665C274.481 112.107 275.002 114.724 275.002 117.368C275.002 120.011 274.481 122.629 273.468 125.071C272.456 127.513 270.972 129.731 269.101 131.599V131.599Z" fill="white"/>
</g>
<defs>
<clipPath id="clip0_1102_158">
<rect width="300" height="300" fill="white"/>
</clipPath>
</defs>
</svg>
