<svg width="300" height="300" viewBox="0 0 300 300" fill="none" xmlns="http://www.w3.org/2000/svg">
<path d="M262.5 50H223.75C220.849 35.8927 213.173 23.2168 202.016 14.109C190.859 5.00113 176.903 0.0181816 162.5 0L137.5 0C123.097 0.0181816 109.141 5.00113 97.9844 14.109C86.8273 23.2168 79.1512 35.8927 76.25 50H37.5C34.1848 50 31.0054 51.317 28.6612 53.6612C26.317 56.0054 25 59.1848 25 62.5C25 65.8152 26.317 68.9946 28.6612 71.3388C31.0054 73.683 34.1848 75 37.5 75H50V237.5C50.0198 254.07 56.611 269.956 68.3277 281.672C80.0445 293.389 95.9301 299.98 112.5 300H187.5C204.07 299.98 219.956 293.389 231.672 281.672C243.389 269.956 249.98 254.07 250 237.5V75H262.5C265.815 75 268.995 73.683 271.339 71.3388C273.683 68.9946 275 65.8152 275 62.5C275 59.1848 273.683 56.0054 271.339 53.6612C268.995 51.317 265.815 50 262.5 50V50ZM137.5 25H162.5C170.253 25.0095 177.814 27.4172 184.145 31.893C190.476 36.3689 195.268 42.6936 197.863 50H102.137C104.732 42.6936 109.524 36.3689 115.855 31.893C122.186 27.4172 129.747 25.0095 137.5 25V25ZM225 237.5C225 247.446 221.049 256.984 214.017 264.017C206.984 271.049 197.446 275 187.5 275H112.5C102.554 275 93.0161 271.049 85.9835 264.017C78.9509 256.984 75 247.446 75 237.5V75H225V237.5Z" fill="white"/>
<path d="M125 224.992C128.315 224.992 131.495 223.675 133.839 221.331C136.183 218.987 137.5 215.807 137.5 212.492V137.492C137.5 134.177 136.183 130.998 133.839 128.653C131.495 126.309 128.315 124.992 125 124.992C121.685 124.992 118.505 126.309 116.161 128.653C113.817 130.998 112.5 134.177 112.5 137.492V212.492C112.5 215.807 113.817 218.987 116.161 221.331C118.505 223.675 121.685 224.992 125 224.992Z" fill="white"/>
<path d="M175 224.992C178.315 224.992 181.495 223.675 183.839 221.331C186.183 218.987 187.5 215.807 187.5 212.492V137.492C187.5 134.177 186.183 130.998 183.839 128.653C181.495 126.309 178.315 124.992 175 124.992C171.685 124.992 168.505 126.309 166.161 128.653C163.817 130.998 162.5 134.177 162.5 137.492V212.492C162.5 215.807 163.817 218.987 166.161 221.331C168.505 223.675 171.685 224.992 175 224.992Z" fill="white"/>
</svg>
